<?xml version="1.0" encoding="utf-8"?>
<!-- Generator: Adobe Illustrator 27.1.0, SVG Export Plug-In . SVG Version: 6.00 Build 0)  -->
<svg version="1.1" id="Capa_1" xmlns="http://www.w3.org/2000/svg" xmlns:xlink="http://www.w3.org/1999/xlink" x="0px" y="0px"
	 viewBox="0 0 350 136.1" style="enable-background:new 0 0 350 136.1;" xml:space="preserve">
<style type="text/css">
	.st0{fill:#033D5B;}
	.st1{fill:#F4AB7A;}
	.st2{fill:#FF6905;}
</style>
<g>
	<g>
		<path class="st0" d="M71.9,65.7c0-1.6,0.3-3.1,0.8-4.6c0.5-1.5,1.3-2.9,2.4-4.1c1-1.2,2.3-2.2,3.8-3c1.5-0.7,3.2-1.1,5.2-1.1
			c2.3,0,4.2,0.5,5.9,1.6c1.6,1,2.8,2.4,3.6,4l-2,1.2c-0.6-1.1-1.3-2-2.1-2.7c-0.8-0.7-1.7-1.1-2.7-1.4c-1-0.3-1.9-0.4-2.8-0.4
			c-1.5,0-2.9,0.3-4.1,0.9c-1.2,0.6-2.2,1.4-3,2.5c-0.8,1-1.4,2.2-1.8,3.4c-0.4,1.3-0.6,2.5-0.6,3.8c0,1.4,0.2,2.8,0.7,4.1
			c0.5,1.3,1.2,2.5,2,3.4c0.9,1,1.9,1.8,3.1,2.4c1.2,0.6,2.4,0.9,3.8,0.9c1,0,2-0.2,3-0.5c1-0.3,2-0.9,2.8-1.6
			c0.9-0.7,1.6-1.6,2.1-2.7l2.1,1.1c-0.5,1.3-1.3,2.4-2.5,3.3c-1.1,0.9-2.3,1.6-3.7,2c-1.4,0.5-2.7,0.7-4,0.7
			c-1.8,0-3.4-0.4-4.8-1.1c-1.5-0.8-2.7-1.8-3.8-3c-1.1-1.3-1.9-2.7-2.5-4.3C72.2,68.9,71.9,67.3,71.9,65.7z"/>
		<path class="st0" d="M105.9,79.1c-1.3,0-2.6-0.3-3.7-0.8c-1.1-0.5-2.1-1.2-3-2.1c-0.8-0.9-1.5-1.9-1.9-3.1
			c-0.5-1.2-0.7-2.4-0.7-3.7c0-1.3,0.2-2.6,0.7-3.8c0.5-1.2,1.1-2.2,2-3.1c0.8-0.9,1.8-1.6,3-2.1c1.1-0.5,2.4-0.8,3.7-0.8
			c1.3,0,2.6,0.3,3.7,0.8c1.1,0.5,2.1,1.2,3,2.1c0.8,0.9,1.5,1.9,2,3.1c0.5,1.2,0.7,2.4,0.7,3.8c0,1.3-0.2,2.5-0.7,3.7
			c-0.5,1.2-1.1,2.2-1.9,3.1c-0.8,0.9-1.8,1.6-3,2.1C108.5,78.8,107.3,79.1,105.9,79.1z M99.1,69.5c0,1.4,0.3,2.6,0.9,3.8
			c0.6,1.1,1.4,2,2.5,2.7c1,0.7,2.2,1,3.4,1c1.3,0,2.4-0.3,3.4-1c1-0.7,1.9-1.6,2.5-2.7c0.6-1.2,0.9-2.4,0.9-3.8
			c0-1.4-0.3-2.7-0.9-3.8c-0.6-1.1-1.5-2.1-2.5-2.7c-1-0.7-2.2-1-3.4-1c-1.3,0-2.4,0.3-3.4,1c-1,0.7-1.8,1.6-2.5,2.7
			C99.4,66.8,99.1,68.1,99.1,69.5z"/>
		<path class="st0" d="M147.4,78.7h-2.5V68.3c0-2.2-0.3-3.8-1-4.8c-0.7-1-1.7-1.5-3.1-1.5c-1.4,0-2.7,0.5-3.8,1.5
			c-1.1,1-1.9,2.3-2.4,3.9v11.4h-2.5V68.3c0-2.2-0.3-3.8-1-4.8c-0.7-1-1.7-1.5-3.1-1.5c-1.4,0-2.7,0.5-3.8,1.5
			c-1.1,1-1.9,2.3-2.4,3.9v11.5h-2.5V60h2.2v4.3c0.8-1.5,1.8-2.6,3.1-3.4c1.2-0.8,2.6-1.2,4.1-1.2c1.6,0,2.8,0.4,3.8,1.3
			c1,0.9,1.6,2,1.8,3.5c0.9-1.6,1.9-2.8,3.1-3.6c1.2-0.8,2.6-1.2,4.1-1.2c1.1,0,2,0.2,2.7,0.6c0.7,0.4,1.3,0.9,1.8,1.6
			c0.4,0.7,0.8,1.6,1,2.5c0.2,1,0.3,2.1,0.3,3.3V78.7z"/>
		<path class="st0" d="M162.2,79.1c-1.6,0-3-0.4-4.2-1.2c-1.2-0.8-2.2-1.8-2.9-3v11.6h-2.5V60h2.2v3.7c0.7-1.2,1.7-2.1,3-2.9
			c1.3-0.7,2.6-1.1,4-1.1c1.3,0,2.5,0.3,3.6,0.8c1.1,0.5,2,1.3,2.8,2.2c0.8,0.9,1.4,1.9,1.9,3.1c0.4,1.2,0.7,2.4,0.7,3.6
			c0,1.7-0.4,3.4-1.1,4.8c-0.7,1.5-1.7,2.7-3,3.5C165.4,78.7,163.9,79.1,162.2,79.1z M161.5,76.9c1,0,2-0.2,2.8-0.6
			c0.8-0.4,1.5-1,2.1-1.7c0.6-0.7,1-1.5,1.4-2.4c0.3-0.9,0.5-1.8,0.5-2.8c0-1-0.2-2-0.5-2.9c-0.3-0.9-0.8-1.7-1.5-2.4
			c-0.6-0.7-1.4-1.2-2.2-1.6c-0.8-0.4-1.8-0.6-2.7-0.6c-0.6,0-1.3,0.1-2,0.4c-0.7,0.2-1.3,0.6-1.9,1c-0.6,0.4-1.1,0.9-1.5,1.5
			c-0.4,0.5-0.7,1.1-0.8,1.8v5.7c0.4,0.9,0.9,1.7,1.6,2.4c0.7,0.7,1.4,1.3,2.3,1.7C159.7,76.7,160.6,76.9,161.5,76.9z"/>
		<path class="st0" d="M173.3,73.4c0-1.2,0.3-2.2,1-3c0.7-0.9,1.6-1.5,2.8-2c1.2-0.5,2.6-0.7,4.1-0.7c0.9,0,1.9,0.1,2.9,0.2
			c1,0.1,1.9,0.4,2.6,0.6v-1.6c0-1.6-0.5-2.8-1.4-3.8c-0.9-0.9-2.2-1.4-3.9-1.4c-1,0-2,0.2-3,0.6c-1,0.4-2,0.9-3.1,1.6l-0.9-1.7
			c1.2-0.8,2.4-1.5,3.6-1.9c1.2-0.4,2.4-0.6,3.6-0.6c2.3,0,4.1,0.7,5.5,2c1.3,1.3,2,3.1,2,5.5v8.7c0,0.3,0.1,0.6,0.2,0.7
			c0.1,0.2,0.4,0.2,0.7,0.3v1.9c-0.3,0-0.5,0-0.7,0.1c-0.2,0-0.3,0-0.4,0c-0.6,0-1.1-0.2-1.4-0.6c-0.3-0.4-0.5-0.7-0.5-1.2l0-1.4
			c-0.8,1.1-1.9,1.9-3.3,2.5c-1.3,0.6-2.7,0.9-4.1,0.9c-1.2,0-2.3-0.3-3.3-0.8c-1-0.5-1.7-1.2-2.3-2.1
			C173.6,75.4,173.3,74.4,173.3,73.4z M185.9,74.8c0.3-0.3,0.5-0.7,0.6-1c0.1-0.3,0.2-0.6,0.2-0.8v-2.7c-0.8-0.3-1.7-0.5-2.5-0.7
			c-0.9-0.2-1.8-0.2-2.7-0.2c-1.8,0-3.2,0.3-4.3,1c-1.1,0.7-1.6,1.6-1.6,2.8c0,0.7,0.2,1.3,0.5,2c0.4,0.6,0.9,1.1,1.6,1.5
			c0.7,0.4,1.5,0.6,2.5,0.6c1.2,0,2.3-0.2,3.3-0.7C184.6,76.1,185.4,75.5,185.9,74.8z"/>
		<path class="st0" d="M203.9,62.1c-1.6,0-3.1,0.5-4.3,1.4c-1.2,0.9-2.1,2.1-2.6,3.6v11.7h-2.5V60h2.3v4.4c0.7-1.3,1.5-2.4,2.6-3.2
			c1.1-0.8,2.2-1.3,3.4-1.4c0.2,0,0.5,0,0.6,0c0.2,0,0.3,0,0.5,0V62.1z"/>
		<path class="st0" d="M205.6,73.4c0-1.2,0.3-2.2,1-3c0.7-0.9,1.6-1.5,2.8-2c1.2-0.5,2.6-0.7,4.1-0.7c0.9,0,1.9,0.1,2.9,0.2
			c1,0.1,1.9,0.4,2.6,0.6v-1.6c0-1.6-0.5-2.8-1.4-3.8c-0.9-0.9-2.2-1.4-3.9-1.4c-1,0-2,0.2-3,0.6c-1,0.4-2,0.9-3.1,1.6l-0.9-1.7
			c1.2-0.8,2.4-1.5,3.6-1.9c1.2-0.4,2.4-0.6,3.6-0.6c2.3,0,4.1,0.7,5.5,2c1.3,1.3,2,3.1,2,5.5v8.7c0,0.3,0.1,0.6,0.2,0.7
			c0.1,0.2,0.4,0.2,0.7,0.3v1.9c-0.3,0-0.5,0-0.7,0.1c-0.2,0-0.3,0-0.4,0c-0.6,0-1.1-0.2-1.4-0.6c-0.3-0.4-0.5-0.7-0.5-1.2l0-1.4
			c-0.8,1.1-1.9,1.9-3.3,2.5c-1.3,0.6-2.7,0.9-4.1,0.9c-1.2,0-2.3-0.3-3.3-0.8c-1-0.5-1.7-1.2-2.3-2.1
			C205.9,75.4,205.6,74.4,205.6,73.4z M218.2,74.8c0.3-0.3,0.5-0.7,0.6-1c0.1-0.3,0.2-0.6,0.2-0.8v-2.7c-0.8-0.3-1.7-0.5-2.5-0.7
			c-0.9-0.2-1.8-0.2-2.7-0.2c-1.8,0-3.2,0.3-4.3,1c-1.1,0.7-1.6,1.6-1.6,2.8c0,0.7,0.2,1.3,0.5,2c0.4,0.6,0.9,1.1,1.6,1.5
			c0.7,0.4,1.5,0.6,2.5,0.6c1.2,0,2.3-0.2,3.3-0.7C216.9,76.1,217.7,75.5,218.2,74.8z"/>
		<path class="st0" d="M225.6,69.4c0-1.8,0.4-3.4,1.1-4.9c0.7-1.5,1.8-2.7,3.1-3.5c1.3-0.9,2.8-1.3,4.4-1.3c1.6,0,3,0.4,4.2,1.2
			c1.2,0.8,2.2,1.8,2.9,3V52.4h2.5v23.4c0,0.3,0.1,0.6,0.2,0.7c0.1,0.2,0.4,0.2,0.7,0.3v1.9c-0.5,0.1-0.9,0.1-1.1,0.1
			c-0.5,0-1-0.2-1.3-0.6c-0.4-0.4-0.6-0.8-0.6-1.3v-1.8c-0.7,1.2-1.8,2.2-3,2.9c-1.3,0.7-2.6,1.1-4,1.1c-1.3,0-2.5-0.3-3.6-0.8
			c-1.1-0.5-2-1.2-2.9-2.2c-0.8-0.9-1.4-1.9-1.9-3.1C225.8,71.9,225.6,70.7,225.6,69.4z M241.3,72.3v-5.8c-0.3-0.9-0.8-1.6-1.5-2.3
			c-0.7-0.7-1.5-1.3-2.4-1.7c-0.9-0.4-1.8-0.6-2.6-0.6c-1,0-1.9,0.2-2.7,0.6c-0.8,0.4-1.5,1-2.1,1.7c-0.6,0.7-1,1.5-1.4,2.4
			c-0.3,0.9-0.5,1.8-0.5,2.8c0,1,0.2,2,0.5,2.9c0.3,0.9,0.8,1.7,1.5,2.4c0.7,0.7,1.4,1.2,2.2,1.6c0.8,0.4,1.8,0.6,2.7,0.6
			c0.6,0,1.3-0.1,1.9-0.4c0.7-0.2,1.3-0.6,1.9-1c0.6-0.4,1.1-0.9,1.5-1.5C240.9,73.5,241.2,72.9,241.3,72.3z"/>
		<path class="st0" d="M257.3,79.1c-1.3,0-2.6-0.3-3.7-0.8c-1.1-0.5-2.1-1.2-3-2.1c-0.8-0.9-1.5-1.9-1.9-3.1
			c-0.5-1.2-0.7-2.4-0.7-3.7c0-1.3,0.2-2.6,0.7-3.8c0.5-1.2,1.1-2.2,2-3.1c0.8-0.9,1.8-1.6,3-2.1c1.1-0.5,2.4-0.8,3.7-0.8
			c1.3,0,2.6,0.3,3.7,0.8c1.1,0.5,2.1,1.2,3,2.1c0.8,0.9,1.5,1.9,1.9,3.1c0.5,1.2,0.7,2.4,0.7,3.8c0,1.3-0.2,2.5-0.7,3.7
			c-0.5,1.2-1.1,2.2-1.9,3.1c-0.8,0.9-1.8,1.6-3,2.1C260,78.8,258.7,79.1,257.3,79.1z M250.5,69.5c0,1.4,0.3,2.6,0.9,3.8
			c0.6,1.1,1.4,2,2.5,2.7c1,0.7,2.2,1,3.4,1c1.3,0,2.4-0.3,3.4-1c1-0.7,1.9-1.6,2.5-2.7c0.6-1.2,0.9-2.4,0.9-3.8
			c0-1.4-0.3-2.7-0.9-3.8c-0.6-1.1-1.5-2.1-2.5-2.7c-1-0.7-2.2-1-3.4-1c-1.3,0-2.4,0.3-3.4,1c-1,0.7-1.8,1.6-2.5,2.7
			C250.8,66.8,250.5,68.1,250.5,69.5z"/>
		<path class="st0" d="M280.2,62.1c-1.6,0-3.1,0.5-4.3,1.4c-1.2,0.9-2.1,2.1-2.6,3.6v11.7h-2.5V60h2.3v4.4c0.7-1.3,1.5-2.4,2.6-3.2
			c1.1-0.8,2.2-1.3,3.4-1.4c0.2,0,0.5,0,0.6,0c0.2,0,0.3,0,0.5,0V62.1z"/>
	</g>
	<g>
		<path class="st0" d="M36.4,89.7c-0.2-0.2-0.5-0.4-0.9-0.7c-0.4-0.3-1-0.6-1.6-0.8c-0.6-0.3-1.3-0.5-2.1-0.7
			c-0.7-0.2-1.5-0.3-2.3-0.3c-1.3,0-2.4,0.3-3.1,0.8c-0.7,0.5-1,1.2-1,2.1c0,0.7,0.2,1.2,0.7,1.7c0.4,0.4,1.1,0.8,2,1
			c0.9,0.3,2,0.6,3.2,0.9c1.7,0.4,3.1,0.9,4.4,1.5c1.2,0.6,2.2,1.4,2.9,2.3c0.7,0.9,1,2.2,1,3.8c0,1.4-0.3,2.5-0.8,3.5
			c-0.5,1-1.2,1.8-2.1,2.4c-0.9,0.6-1.9,1-3,1.3c-1.1,0.3-2.3,0.4-3.6,0.4c-1.3,0-2.6-0.1-3.8-0.4c-1.3-0.3-2.5-0.6-3.7-1.1
			c-1.2-0.5-2.3-1.1-3.3-1.8l2.2-4.3c0.2,0.2,0.6,0.5,1.2,0.8c0.6,0.3,1.2,0.7,2,1c0.8,0.3,1.7,0.6,2.6,0.9c0.9,0.2,1.9,0.4,2.9,0.4
			c1.3,0,2.4-0.2,3.1-0.7c0.7-0.5,1-1.1,1-1.9c0-0.8-0.3-1.4-0.8-1.8c-0.6-0.4-1.3-0.8-2.3-1.1c-1-0.3-2.2-0.7-3.5-1.1
			c-1.6-0.5-3-1-4-1.5c-1.1-0.6-1.9-1.3-2.4-2.1c-0.5-0.9-0.8-1.9-0.8-3.2c0-1.8,0.4-3.2,1.2-4.4c0.8-1.2,2-2.1,3.4-2.7
			c1.4-0.6,3-0.9,4.7-0.9c1.2,0,2.3,0.1,3.4,0.4c1.1,0.3,2.1,0.6,3,1c0.9,0.4,1.8,0.9,2.5,1.4L36.4,89.7z"/>
		<path class="st0" d="M51.6,109c-1.5,0-2.9-0.3-4.1-0.8c-1.2-0.5-2.3-1.2-3.1-2.1c-0.9-0.9-1.5-1.9-2-3.1c-0.5-1.2-0.7-2.4-0.7-3.7
			c0-1.8,0.4-3.4,1.2-4.9c0.8-1.5,2-2.7,3.5-3.6c1.5-0.9,3.3-1.3,5.3-1.3c2.1,0,3.8,0.4,5.3,1.3c1.5,0.9,2.6,2.1,3.4,3.5
			c0.8,1.5,1.2,3,1.2,4.7c0,0.3,0,0.6,0,0.9c0,0.3,0,0.5-0.1,0.7H46.7c0.1,0.9,0.4,1.8,0.8,2.5c0.5,0.7,1.1,1.2,1.8,1.6
			c0.7,0.4,1.5,0.5,2.4,0.5c1,0,1.9-0.2,2.7-0.7c0.9-0.5,1.4-1.1,1.8-1.9l4.2,1.2c-0.5,1-1.1,1.8-2,2.6c-0.9,0.7-1.9,1.3-3,1.8
			C54.2,108.7,53,109,51.6,109z M46.6,97.7h9.9c-0.1-0.9-0.4-1.8-0.8-2.5c-0.4-0.7-1-1.2-1.8-1.6c-0.7-0.4-1.5-0.6-2.4-0.6
			c-0.9,0-1.7,0.2-2.4,0.6c-0.7,0.4-1.3,0.9-1.7,1.6C47,96,46.7,96.8,46.6,97.7z"/>
		<path class="st0" d="M71.8,109c-1.3,0-2.4-0.2-3.4-0.7c-1-0.5-2-1.2-2.7-2.1c-0.8-0.9-1.3-1.9-1.8-3.1c-0.4-1.2-0.6-2.4-0.6-3.7
			c0-1.4,0.2-2.7,0.7-3.8c0.4-1.2,1-2.2,1.8-3.1c0.8-0.9,1.7-1.6,2.8-2.1c1.1-0.5,2.3-0.7,3.6-0.7c1.5,0,2.8,0.3,3.9,1
			c1.1,0.6,2,1.5,2.7,2.6v-3.3H83v17.9c0,1.9-0.5,3.5-1.4,4.8c-0.9,1.3-2.1,2.3-3.7,3c-1.6,0.7-3.4,1.1-5.4,1.1c-2,0-3.8-0.3-5.2-1
			c-1.4-0.7-2.6-1.7-3.6-2.9l2.6-2.6c0.7,0.9,1.6,1.6,2.7,2.1c1.1,0.5,2.3,0.8,3.5,0.8c1,0,2-0.2,2.8-0.5c0.9-0.4,1.5-0.9,2.1-1.6
			c0.5-0.7,0.8-1.7,0.8-2.9v-2.4c-0.6,1.1-1.5,1.9-2.7,2.5C74.3,108.7,73.1,109,71.8,109z M73.5,105.1c0.5,0,1-0.1,1.5-0.3
			c0.5-0.2,0.9-0.4,1.3-0.7c0.4-0.3,0.8-0.6,1.1-1c0.3-0.4,0.6-0.8,0.7-1.2v-4.5c-0.3-0.7-0.7-1.4-1.2-2c-0.5-0.6-1.1-1-1.7-1.3
			c-0.6-0.3-1.3-0.5-2-0.5c-0.7,0-1.4,0.2-2,0.5c-0.6,0.3-1.1,0.8-1.6,1.3c-0.4,0.6-0.8,1.2-1,1.9c-0.2,0.7-0.3,1.4-0.3,2.2
			c0,0.8,0.1,1.5,0.4,2.2c0.3,0.7,0.6,1.3,1.1,1.8c0.5,0.5,1,0.9,1.7,1.2C72.1,104.9,72.7,105.1,73.5,105.1z"/>
		<path class="st0" d="M87.1,101.6V89.8H92v10.7c0,1.4,0.3,2.5,0.8,3.2c0.5,0.7,1.3,1.1,2.3,1.1c0.6,0,1.2-0.1,1.9-0.4
			c0.6-0.2,1.2-0.6,1.7-1.1c0.5-0.5,1-1.1,1.3-1.9V89.8h4.8v13.3c0,0.5,0.1,0.9,0.3,1.1c0.2,0.2,0.5,0.3,0.9,0.4v3.9
			c-0.5,0.1-0.9,0.1-1.2,0.2c-0.3,0-0.6,0.1-0.9,0.1c-0.9,0-1.6-0.2-2.1-0.6c-0.5-0.4-0.9-0.9-1-1.6l-0.1-1.5
			c-0.8,1.3-1.9,2.2-3.3,2.9c-1.3,0.7-2.8,1-4.4,1c-2,0-3.4-0.6-4.4-1.9C87.6,105.8,87.1,104,87.1,101.6z"/>
		<path class="st0" d="M120.9,93.9c-1.5,0-2.8,0.3-3.9,0.8c-1.2,0.6-2,1.4-2.5,2.4v11.5h-4.8V89.8h4.4v3.9c0.7-1.3,1.5-2.3,2.6-3.1
			c1-0.7,2.1-1.2,3.3-1.2c0.3,0,0.5,0,0.6,0c0.1,0,0.3,0,0.4,0V93.9z"/>
		<path class="st0" d="M132.1,109c-1.5,0-2.9-0.3-4.2-0.8c-1.2-0.5-2.3-1.2-3.1-2.1c-0.9-0.9-1.5-1.9-2-3.1
			c-0.5-1.2-0.7-2.4-0.7-3.7c0-1.3,0.2-2.5,0.7-3.7c0.5-1.2,1.1-2.2,2-3.1c0.9-0.9,1.9-1.6,3.1-2.1c1.2-0.5,2.6-0.8,4.2-0.8
			c1.5,0,2.9,0.3,4.1,0.8c1.2,0.5,2.3,1.2,3.1,2.1c0.9,0.9,1.5,1.9,2,3.1c0.4,1.2,0.7,2.4,0.7,3.7c0,1.3-0.2,2.5-0.7,3.7
			c-0.4,1.2-1.1,2.2-2,3.1c-0.9,0.9-1.9,1.6-3.1,2.1C135,108.7,133.7,109,132.1,109z M127.2,99.3c0,1.1,0.2,2,0.7,2.9
			c0.4,0.8,1,1.5,1.8,2c0.7,0.5,1.6,0.7,2.5,0.7c0.9,0,1.7-0.2,2.5-0.7c0.7-0.5,1.3-1.1,1.8-2c0.4-0.8,0.7-1.8,0.7-2.9
			c0-1.1-0.2-2-0.7-2.9c-0.4-0.8-1-1.5-1.8-2c-0.7-0.5-1.6-0.7-2.5-0.7c-0.9,0-1.8,0.2-2.5,0.7c-0.7,0.5-1.3,1.1-1.8,2
			C127.4,97.2,127.2,98.2,127.2,99.3z"/>
		<path class="st0" d="M144.1,99.2c0-1.8,0.4-3.4,1.1-4.9c0.7-1.5,1.7-2.6,3-3.5c1.3-0.9,2.7-1.3,4.4-1.3c1.4,0,2.7,0.3,3.8,1
			c1.1,0.7,2,1.6,2.6,2.6v-11h4.8v20.9c0,0.5,0.1,0.9,0.3,1.1c0.2,0.2,0.5,0.4,0.9,0.4v3.9c-0.8,0.2-1.5,0.3-2.1,0.3
			c-0.9,0-1.6-0.2-2.1-0.6c-0.6-0.4-0.9-1-1-1.7l-0.1-1.2c-0.7,1.2-1.6,2.1-2.8,2.7c-1.2,0.6-2.4,0.9-3.7,0.9
			c-1.3,0-2.5-0.3-3.6-0.8c-1.1-0.5-2-1.2-2.9-2.1c-0.8-0.9-1.4-1.9-1.9-3.1C144.3,101.9,144.1,100.6,144.1,99.2z M159,101.7v-4.4
			c-0.2-0.7-0.6-1.3-1.2-1.8c-0.5-0.5-1.1-1-1.8-1.3c-0.7-0.3-1.3-0.5-2-0.5c-0.7,0-1.4,0.2-2,0.5c-0.6,0.3-1.1,0.7-1.6,1.2
			c-0.4,0.5-0.8,1.1-1,1.8c-0.2,0.7-0.3,1.4-0.3,2.2c0,0.8,0.1,1.5,0.4,2.1c0.3,0.7,0.6,1.3,1.1,1.8c0.5,0.5,1,0.9,1.7,1.2
			c0.6,0.3,1.3,0.4,2.1,0.4c0.5,0,0.9-0.1,1.4-0.2c0.5-0.2,0.9-0.4,1.3-0.6c0.4-0.3,0.8-0.6,1.1-1
			C158.5,102.6,158.8,102.2,159,101.7z"/>
		<path class="st0" d="M177.3,109c-1.5,0-2.9-0.3-4.1-0.8c-1.2-0.5-2.3-1.2-3.1-2.1c-0.9-0.9-1.5-1.9-2-3.1
			c-0.5-1.2-0.7-2.4-0.7-3.7c0-1.8,0.4-3.4,1.2-4.9c0.8-1.5,2-2.7,3.5-3.6c1.5-0.9,3.3-1.3,5.3-1.3c2.1,0,3.8,0.4,5.3,1.3
			c1.5,0.9,2.6,2.1,3.4,3.5c0.8,1.5,1.2,3,1.2,4.7c0,0.3,0,0.6,0,0.9c0,0.3,0,0.5-0.1,0.7h-14.6c0.1,0.9,0.4,1.8,0.8,2.5
			c0.5,0.7,1.1,1.2,1.8,1.6c0.7,0.4,1.5,0.5,2.4,0.5c1,0,1.9-0.2,2.7-0.7c0.9-0.5,1.4-1.1,1.8-1.9l4.2,1.2c-0.5,1-1.1,1.8-2,2.6
			c-0.9,0.7-1.9,1.3-3,1.8C180,108.7,178.7,109,177.3,109z M172.4,97.7h9.9c-0.1-0.9-0.4-1.8-0.8-2.5c-0.4-0.7-1-1.2-1.8-1.6
			c-0.7-0.4-1.5-0.6-2.4-0.6c-0.9,0-1.7,0.2-2.4,0.6c-0.7,0.4-1.3,0.9-1.7,1.6C172.8,96,172.5,96.8,172.4,97.7z"/>
		<path class="st0" d="M199,109c-1.5,0-2.9-0.3-4.2-0.8c-1.2-0.5-2.3-1.2-3.1-2.1c-0.9-0.9-1.5-2-2-3.1c-0.5-1.2-0.7-2.4-0.7-3.7
			c0-1.8,0.4-3.4,1.2-4.8c0.8-1.5,2-2.6,3.4-3.5c1.5-0.9,3.3-1.3,5.3-1.3c2,0,3.8,0.4,5.3,1.3c1.5,0.9,2.6,2.1,3.3,3.5l-4.7,1.4
			c-0.4-0.7-1-1.2-1.6-1.6c-0.7-0.4-1.4-0.6-2.2-0.6c-0.9,0-1.8,0.2-2.5,0.7c-0.8,0.5-1.4,1.1-1.8,1.9c-0.4,0.8-0.7,1.8-0.7,2.9
			c0,1.1,0.2,2.1,0.7,2.9c0.4,0.8,1,1.5,1.8,2c0.7,0.5,1.6,0.7,2.5,0.7c0.6,0,1.1-0.1,1.6-0.3c0.5-0.2,1-0.5,1.4-0.8
			c0.4-0.3,0.7-0.7,0.9-1.2l4.7,1.4c-0.4,0.9-1.1,1.8-1.9,2.5c-0.8,0.7-1.8,1.3-2.9,1.8C201.7,108.7,200.4,109,199,109z"/>
		<path class="st0" d="M219.2,109c-1.5,0-2.9-0.3-4.1-0.8c-1.2-0.5-2.3-1.2-3.1-2.1c-0.9-0.9-1.5-1.9-2-3.1
			c-0.5-1.2-0.7-2.4-0.7-3.7c0-1.8,0.4-3.4,1.2-4.9c0.8-1.5,2-2.7,3.5-3.6c1.5-0.9,3.3-1.3,5.3-1.3c2.1,0,3.8,0.4,5.3,1.3
			c1.5,0.9,2.6,2.1,3.4,3.5c0.8,1.5,1.2,3,1.2,4.7c0,0.3,0,0.6,0,0.9c0,0.3,0,0.5-0.1,0.7h-14.6c0.1,0.9,0.4,1.8,0.8,2.5
			c0.5,0.7,1.1,1.2,1.8,1.6c0.7,0.4,1.5,0.5,2.4,0.5c1,0,1.9-0.2,2.7-0.7c0.9-0.5,1.4-1.1,1.8-1.9l4.2,1.2c-0.5,1-1.1,1.8-2,2.6
			c-0.9,0.7-1.9,1.3-3,1.8C221.8,108.7,220.6,109,219.2,109z M214.2,97.7h9.9c-0.1-0.9-0.4-1.8-0.8-2.5c-0.4-0.7-1-1.2-1.8-1.6
			c-0.7-0.4-1.5-0.6-2.4-0.6c-0.9,0-1.7,0.2-2.4,0.6c-0.7,0.4-1.3,0.9-1.7,1.6C214.6,96,214.3,96.8,214.2,97.7z"/>
		<path class="st0" d="M239,109c-1.6,0-3.2-0.3-4.6-0.8c-1.5-0.5-2.7-1.3-3.8-2.3l1.7-3.1c1.1,0.9,2.2,1.6,3.3,2
			c1.1,0.4,2.1,0.6,3.2,0.6c0.9,0,1.7-0.2,2.3-0.5c0.6-0.3,0.8-0.8,0.8-1.5c0-0.5-0.2-0.8-0.5-1.1c-0.3-0.2-0.8-0.5-1.4-0.7
			c-0.6-0.2-1.3-0.4-2.1-0.6c-1.4-0.5-2.6-0.9-3.5-1.3c-0.9-0.4-1.6-1-2.1-1.6c-0.5-0.7-0.7-1.5-0.7-2.5c0-1.2,0.3-2.3,1-3.2
			c0.6-0.9,1.5-1.6,2.7-2.1c1.1-0.5,2.5-0.7,4-0.7c1.3,0,2.6,0.2,3.8,0.6c1.2,0.4,2.3,1.1,3.3,2l-1.9,3.1c-1-0.7-1.9-1.3-2.7-1.6
			c-0.9-0.3-1.7-0.5-2.6-0.5c-0.5,0-1,0.1-1.4,0.2c-0.4,0.1-0.8,0.3-1.1,0.6c-0.3,0.3-0.4,0.7-0.4,1.2c0,0.5,0.1,0.8,0.4,1
			c0.3,0.2,0.6,0.5,1.2,0.7c0.5,0.2,1.1,0.4,1.9,0.6c1.5,0.4,2.8,0.9,3.8,1.3c1,0.5,1.8,1,2.4,1.7c0.5,0.7,0.8,1.5,0.8,2.7
			c0,1.8-0.7,3.3-2.1,4.3C243.1,108.4,241.3,109,239,109z"/>
		<path class="st0" d="M258.6,109c-1.5,0-2.9-0.3-4.2-0.8c-1.2-0.5-2.3-1.2-3.1-2.1c-0.9-0.9-1.5-1.9-2-3.1
			c-0.5-1.2-0.7-2.4-0.7-3.7c0-1.3,0.2-2.5,0.7-3.7c0.5-1.2,1.1-2.2,2-3.1c0.9-0.9,1.9-1.6,3.1-2.1c1.2-0.5,2.6-0.8,4.2-0.8
			c1.5,0,2.9,0.3,4.1,0.8c1.2,0.5,2.3,1.2,3.1,2.1c0.9,0.9,1.5,1.9,2,3.1c0.4,1.2,0.7,2.4,0.7,3.7c0,1.3-0.2,2.5-0.7,3.7
			c-0.4,1.2-1.1,2.2-2,3.1c-0.9,0.9-1.9,1.6-3.1,2.1C261.5,108.7,260.2,109,258.6,109z M253.7,99.3c0,1.1,0.2,2,0.6,2.9
			c0.4,0.8,1,1.5,1.8,2c0.7,0.5,1.6,0.7,2.5,0.7c0.9,0,1.7-0.2,2.5-0.7c0.7-0.5,1.3-1.1,1.8-2c0.4-0.8,0.7-1.8,0.7-2.9
			c0-1.1-0.2-2-0.7-2.9c-0.4-0.8-1-1.5-1.8-2c-0.7-0.5-1.6-0.7-2.5-0.7c-0.9,0-1.8,0.2-2.5,0.7c-0.7,0.5-1.3,1.1-1.8,2
			C253.9,97.2,253.7,98.2,253.7,99.3z"/>
		<path class="st0" d="M278.7,109c-1.6,0-3.2-0.3-4.6-0.8c-1.5-0.5-2.7-1.3-3.8-2.3l1.7-3.1c1.1,0.9,2.2,1.6,3.3,2
			c1.1,0.4,2.1,0.6,3.2,0.6c0.9,0,1.7-0.2,2.3-0.5c0.6-0.3,0.9-0.8,0.9-1.5c0-0.5-0.2-0.8-0.5-1.1c-0.3-0.2-0.8-0.5-1.4-0.7
			c-0.6-0.2-1.3-0.4-2.1-0.6c-1.4-0.5-2.6-0.9-3.5-1.3c-0.9-0.4-1.6-1-2.1-1.6c-0.5-0.7-0.7-1.5-0.7-2.5c0-1.2,0.3-2.3,1-3.2
			c0.6-0.9,1.5-1.6,2.7-2.1c1.1-0.5,2.5-0.7,4-0.7c1.3,0,2.6,0.2,3.8,0.6c1.2,0.4,2.3,1.1,3.3,2l-1.9,3.1c-1-0.7-1.9-1.3-2.7-1.6
			c-0.9-0.3-1.7-0.5-2.6-0.5c-0.5,0-1,0.1-1.4,0.2c-0.4,0.1-0.8,0.3-1.1,0.6c-0.3,0.3-0.4,0.7-0.4,1.2c0,0.5,0.1,0.8,0.4,1
			c0.3,0.2,0.6,0.5,1.2,0.7c0.5,0.2,1.1,0.4,1.9,0.6c1.5,0.4,2.8,0.9,3.8,1.3c1,0.5,1.8,1,2.4,1.7c0.5,0.7,0.8,1.5,0.8,2.7
			c0,1.8-0.7,3.3-2.1,4.3C282.9,108.4,281,109,278.7,109z"/>
		<path class="st0" d="M289.7,108.6v-3.5h2.1v3.5H289.7z"/>
		<path class="st0" d="M304.3,109c-1.3,0-2.6-0.3-3.8-0.8c-1.2-0.5-2.2-1.2-3-2.1c-0.8-0.9-1.5-1.9-2-3.1c-0.5-1.2-0.7-2.4-0.7-3.8
			c0-1.7,0.4-3.3,1.2-4.8c0.8-1.5,1.9-2.6,3.3-3.5c1.4-0.9,3-1.3,4.8-1.3c1.9,0,3.5,0.4,4.9,1.3c1.4,0.9,2.5,2.1,3.3,3.5
			c0.8,1.4,1.2,3,1.2,4.8c0,0.2,0,0.4,0,0.6c0,0.2,0,0.3,0,0.4h-16.1c0.1,1.3,0.5,2.5,1.1,3.6c0.6,1,1.5,1.9,2.5,2.5
			c1,0.6,2.1,0.9,3.3,0.9c1.2,0,2.4-0.3,3.5-0.9c1.1-0.6,1.9-1.4,2.3-2.5l2.1,0.6c-0.4,0.9-1,1.7-1.8,2.4c-0.8,0.7-1.7,1.3-2.8,1.7
			C306.7,108.8,305.6,109,304.3,109z M297.4,98.3h13.9c-0.1-1.4-0.5-2.5-1.1-3.6c-0.6-1-1.5-1.8-2.5-2.4c-1-0.6-2.1-0.9-3.4-0.9
			c-1.2,0-2.3,0.3-3.4,0.9c-1,0.6-1.8,1.4-2.5,2.4C297.9,95.8,297.5,97,297.4,98.3z"/>
		<path class="st0" d="M323.6,109c-1.5,0-3-0.3-4.3-0.8c-1.3-0.5-2.5-1.3-3.4-2.3l1-1.7c1.1,1,2.1,1.7,3.2,2.1
			c1.1,0.4,2.2,0.7,3.4,0.7c1.5,0,2.7-0.3,3.6-0.9c0.9-0.6,1.4-1.4,1.4-2.5c0-0.7-0.2-1.3-0.7-1.7c-0.4-0.4-1.1-0.7-1.9-1
			c-0.8-0.3-1.8-0.5-3-0.8c-1.3-0.4-2.4-0.7-3.3-1.1c-0.9-0.4-1.5-0.9-2-1.5c-0.4-0.6-0.7-1.4-0.7-2.4c0-1.2,0.3-2.2,0.9-3
			c0.6-0.8,1.5-1.4,2.5-1.8c1.1-0.4,2.3-0.6,3.6-0.6c1.4,0,2.7,0.2,3.8,0.7c1.1,0.5,2,1.1,2.7,1.9l-1.2,1.7
			c-0.7-0.8-1.5-1.3-2.4-1.7c-0.9-0.4-2-0.6-3.1-0.6c-0.8,0-1.5,0.1-2.2,0.3c-0.7,0.2-1.3,0.5-1.7,1c-0.4,0.5-0.7,1.1-0.7,1.9
			c0,0.7,0.2,1.2,0.5,1.6c0.3,0.4,0.8,0.7,1.5,0.9c0.7,0.3,1.5,0.5,2.5,0.8c1.4,0.4,2.7,0.8,3.7,1.2c1.1,0.4,1.9,0.9,2.5,1.5
			c0.6,0.6,0.9,1.5,0.9,2.6c0,1.7-0.7,3.1-2,4.1C327.5,108.5,325.8,109,323.6,109z"/>
	</g>
	<g>
		<g>
			<g>
				<g>
					<path class="st1" d="M196.9,22.4c2.4-2.5,5.6-3.5,8.2-2.9c0.7,2.6-0.2,5.9-2.6,8.3c-2.4,2.5-5.6,3.5-8.2,2.9
						C193.7,28.1,194.6,24.8,196.9,22.4z"/>
				</g>
				<g>
					<path class="st1" d="M205.3,27.6c4.6,0.5,8.5,2.5,10.2,5.1c-2.2,2.2-6.4,3.4-11,3c-4.6-0.5-8.5-2.5-10.2-5.1
						C196.5,28.4,200.6,27.1,205.3,27.6z"/>
				</g>
			</g>
			<g>
				<path class="st1" d="M195,42.5c3.4,0.3,6.2,1.6,7.5,3.2c-1.6,1.3-4.6,2-8,1.6c-3.4-0.3-6.2-1.6-7.5-3.2
					C188.5,42.8,191.6,42.2,195,42.5z"/>
			</g>
			<g>
				<path class="st1" d="M180.4,22.3c2.4-2.4,5.6-3.4,8-2.9c0.4,2.5-0.7,5.6-3.1,8c-2.4,2.4-5.6,3.4-8,2.9
					C176.9,27.8,178,24.7,180.4,22.3z"/>
			</g>
			<g>
				<path class="st2" d="M177.3,29.9c5.7-3.2,12.4-2.8,17.5,0.6c0.3,6.1-2.7,12.2-8.4,15.4c-5.7,3.2-12.4,2.8-17.5-0.6
					C168.6,39.2,171.6,33.1,177.3,29.9z"/>
			</g>
			<g>
				<path class="st0" d="M173.2,40.9c0.2,0.4,0.8,0.6,1.2,0.3c0.4-0.2,0.6-0.8,0.3-1.2c-0.2-0.4-0.8-0.6-1.2-0.3
					C173.2,39.9,173,40.4,173.2,40.9z"/>
			</g>
			<g>
				<path class="st1" d="M174.8,37.6c0,0,0.8,0.3,1.9,1c0.5,0.4,1.2,0.8,1.8,1.4c0.3,0.3,0.6,0.6,0.9,1c0.2,0.4,0.5,0.8,0.7,1.2
					c0.2,0.4,0.2,1,0.2,1.5c0,0.3-0.1,0.5-0.2,0.7c-0.1,0.2-0.3,0.4-0.4,0.6c-0.2,0.4-0.7,0.6-1,0.8c-0.3,0.2-0.7,0.3-1,0.5
					c-0.6,0.3-1.2,0.3-1.5,0.4c-0.4,0.1-0.6,0.1-0.6,0.1s0.2-0.1,0.5-0.3c0.3-0.2,0.8-0.4,1.4-0.7c0.3-0.2,0.6-0.3,0.8-0.6
					c0.2-0.3,0.5-0.5,0.7-0.8l0.3-0.4c0-0.2,0-0.3,0.1-0.5c0-0.3,0-0.7-0.2-1c-0.2-0.7-0.8-1.4-1.3-2c-0.5-0.6-1-1.1-1.5-1.6
					C175.5,38.2,174.8,37.6,174.8,37.6z"/>
			</g>
			<g>
				<path class="st1" d="M183.1,41.7c1.6-0.7,3.2-0.8,4.1-0.4c-0.4,0.9-1.6,2-3.2,2.6c-1.6,0.7-3.2,0.8-4.1,0.4
					C180.3,43.4,181.5,42.3,183.1,41.7z"/>
			</g>
		</g>
		<g>
			<path class="st0" d="M250.1,51.8c-2.1,0-4.1-0.9-5.5-2.5c-1.3-1.5-1.9-3.3-1.8-5.2c0.1-1.9,1-3.7,2.5-5c1.3-1.1,3-1.8,4.7-1.8
				c2.1,0,4.1,0.9,5.5,2.5c1.3,1.5,1.9,3.3,1.8,5.2c-0.1,1.9-1,3.7-2.5,5C253.6,51.2,251.9,51.8,250.1,51.8z M250.1,38.1
				c-1.6,0-3.1,0.6-4.3,1.6c-1.3,1.1-2.1,2.7-2.2,4.4c-0.1,1.7,0.4,3.4,1.6,4.7c1.2,1.4,3,2.2,4.9,2.2c1.6,0,3.1-0.6,4.3-1.6
				c1.3-1.1,2.1-2.7,2.2-4.4c0.1-1.7-0.4-3.4-1.6-4.7C253.8,38.9,252,38.1,250.1,38.1z"/>
		</g>
		<g>
			<path class="st0" d="M238.2,41.3c-1.7,0-3.3-0.7-4.5-2c-1-1.2-1.5-2.7-1.4-4.3c0.1-1.6,0.8-3,2-4.1c1.1-0.9,2.5-1.5,3.9-1.5
				c1.7,0,3.3,0.7,4.5,2c2.1,2.5,1.9,6.2-0.6,8.3C241,40.8,239.6,41.3,238.2,41.3z M238.2,30.3c-1.2,0-2.4,0.4-3.4,1.3
				c-1,0.9-1.7,2.2-1.8,3.5c-0.1,1.4,0.4,2.7,1.3,3.7c1,1.1,2.4,1.8,3.9,1.8c1.2,0,2.4-0.5,3.4-1.3c2.1-1.9,2.4-5.1,0.5-7.3
				C241.1,30.9,239.7,30.3,238.2,30.3z"/>
		</g>
		<g>
			<path class="st0" d="M226.3,35.2c-1.2,0-2.4-0.5-3.2-1.5c-0.7-0.9-1.1-2-1-3.1c0.1-1.1,0.6-2.2,1.5-2.9c0.8-0.7,1.8-1,2.8-1
				c1.2,0,2.4,0.5,3.2,1.5c1.5,1.8,1.4,4.5-0.4,6C228.3,34.8,227.3,35.2,226.3,35.2z M226.3,27.4c-0.8,0-1.7,0.3-2.3,0.9
				c-1.5,1.3-1.6,3.5-0.3,4.9c0.7,0.8,1.6,1.2,2.6,1.2c0.8,0,1.7-0.3,2.3-0.9c1.5-1.3,1.6-3.5,0.3-4.9
				C228.3,27.9,227.3,27.4,226.3,27.4z"/>
		</g>
	</g>
</g>
</svg>
