<?xml version="1.0" encoding="utf-8"?>
<!-- Generator: Adobe Illustrator 16.0.0, SVG Export Plug-In . SVG Version: 6.00 Build 0)  -->
<!DOCTYPE svg PUBLIC "-//W3C//DTD SVG 1.1//EN" "http://www.w3.org/Graphics/SVG/1.1/DTD/svg11.dtd">
<svg version="1.1" id="Capa_1" xmlns="http://www.w3.org/2000/svg" xmlns:xlink="http://www.w3.org/1999/xlink" x="0px" y="0px"
	 width="250px" height="110px" viewBox="0 0 250 110" enable-background="new 0 0 250 110" xml:space="preserve">
<g>
	<path fill="#005891" d="M40.733,62.734c-0.422,4.441-3.219,4.938-7.533,4.855c-4.148,0.082-6.859-0.334-7.198-4.279
		c0-3.047,2.031-4.525,6.011-4.525h8.721V62.734z M33.791,33.444c-11.217,0-16.801,4.739-16.844,14.127h10.161
		c0.046-3.86,2.569-4.994,6.683-4.994c4.656,0,6.942,1.645,6.942,5.018v3.127h-8.552C20.752,50.721,15,55.001,15,63.555
		c0,8.639,5.586,13.002,18.369,13.002s18.367-4.363,18.367-13.246V47.594C51.736,38.132,45.729,33.444,33.791,33.444"/>
	<path fill="#005891" d="M80.2,51.791l-8.804-3.373c-3.3-1.235-4.317-1.897-4.317-3.208c0-1.729,1.608-2.472,6.775-2.472
		c4.941,0,6.482,1.377,6.513,4.839h9.989c-0.043-9.394-5.454-14.133-16.335-14.133c-12.528,0-17.778,3.948-17.778,12.094
		c0,6.253,3.133,8.969,9.65,11.685l7.875,3.205c2.794,1.072,4.484,1.893,5.164,2.391c0.677,0.492,1.013,1.148,1.013,1.889
		c0,1.893-1.775,2.553-6.856,2.553c-5.96,0-7.625-1.031-7.698-4.852h-9.984c0.089,9.775,5.185,14.146,17.683,14.146
		c12.611,0,17.692-3.867,17.692-12.424C90.781,57.633,87.565,54.506,80.2,51.791"/>
	<rect x="94.449" y="34.429" fill="#005891" width="11.002" height="41.141"/>
	<path fill="#005891" d="M133.916,51.791l-8.804-3.373c-3.3-1.235-4.32-1.897-4.32-3.208c0-1.729,1.611-2.472,6.775-2.472
		c4.954,0,6.49,1.377,6.519,4.854h9.984c-0.03-9.403-5.447-14.147-16.333-14.147c-12.528,0-17.781,3.948-17.781,12.094
		c0,6.253,3.133,8.969,9.656,11.685l7.869,3.205c2.797,1.072,4.489,1.893,5.167,2.391c0.674,0.492,1.01,1.148,1.01,1.889
		c0,1.893-1.775,2.553-6.854,2.553c-5.955,0-7.622-1.031-7.695-4.842h-9.987c0.092,9.768,5.185,14.137,17.683,14.137
		c12.614,0,17.692-3.867,17.692-12.424C144.497,57.633,141.283,54.506,133.916,51.791"/>
	<path fill="#005891" d="M173.898,62.734c-0.424,4.441-3.213,4.938-7.533,4.855c-4.146,0.082-6.856-0.334-7.195-4.279
		c0-3.047,2.031-4.525,6.013-4.525h8.716V62.734z M166.959,33.444c-11.228,0-16.808,4.744-16.844,14.147h10.159
		c0.04-3.875,2.566-5.015,6.685-5.015c4.656,0,6.939,1.645,6.939,5.018v3.127h-8.544c-11.435,0-17.189,4.28-17.189,12.833
		c0,8.639,5.589,13.002,18.369,13.002c12.784,0,18.37-4.363,18.37-13.246V47.594C184.904,38.132,178.894,33.444,166.959,33.444"/>
	<path fill="#005891" d="M223.211,47.579c-1.315-7.71-4.636-13.192-8.479-13.192h-13.847c4.454,2.748,6.121,9.896,6.121,9.896
		c0.275,1.025,0.503,2.133,0.692,3.297h-11.79v14.845h11.79c-0.164,1.006-0.363,1.961-0.591,2.865l-0.102,0.422
		c0,0-0.406,1.449-1.091,3.24c-0.95,2.26-2.562,5.137-5.03,6.658h13.847c1.367,0,2.666-0.705,3.833-1.943
		c2.114-2.248,3.8-6.275,4.644-11.242H235V47.579H223.211z"/>
</g>
</svg>
