<?xml version="1.0" encoding="utf-8"?>
<!-- Generator: Adobe Illustrator 16.0.0, SVG Export Plug-In . SVG Version: 6.00 Build 0)  -->
<!DOCTYPE svg PUBLIC "-//W3C//DTD SVG 1.1//EN" "http://www.w3.org/Graphics/SVG/1.1/DTD/svg11.dtd">
<svg version="1.1" id="Capa_1" xmlns="http://www.w3.org/2000/svg" xmlns:xlink="http://www.w3.org/1999/xlink" x="0px" y="0px"
	 width="250px" height="110px" viewBox="0 0 250 110" enable-background="new 0 0 250 110" xml:space="preserve">
<g>
	<path fill-rule="evenodd" clip-rule="evenodd" fill="#213766" d="M117.021,19.451c0.72,0.189,1.145,0.502,1.277,1.277
		c0.246,1.442,0.4,2.894,0.427,4.349c0.072,4.027,0.095,8.055,0.105,12.083c0.014,5.454,0.082,10.909-0.216,16.359
		c-0.118,2.146-0.334,2.48-2.401,2.901c-0.569,0.116-1.165,0.163-1.744,0.151c-1.127-0.024-0.918,0.769-0.934,1.433
		c-0.016,0.728,0.176,1.254,1.075,1.047c0.181,0.011,0.362,0.032,0.543,0.029c3.357-0.063,6.716-0.071,10.074-0.195
		c2.365-0.087,4.741,0.158,7.112,0.229c1.716,0.052,2.199-0.832,1.39-2.481c-0.232-0.09-0.468-0.12-0.705-0.125
		c-0.999-0.172-2.004-0.31-3.023-0.319c0.026,0.021,0.053,0.042,0.079,0.063c-0.034-0.016-0.061-0.035-0.079-0.063
		c-0.618-0.218-1.478-0.028-1.685-0.95c-0.136-0.604-0.275-1.216-0.328-1.83c-0.376-4.458-0.182-8.93-0.264-13.394
		c-0.016-0.893,0.281-1.216,1.194-1.249c2.931-0.108,5.852-0.047,8.766,0.286l0,0l0,0c0.309,0.203,0.541,0.443,0.634,0.833
		c0.242,1.026,0.578,2.059,0.5,3.108c-0.091,1.206,0.462,1.468,1.478,1.309c0.314-0.049,0.662,0.053,0.936-0.196
		c0.408-0.188,0.268-0.551,0.268-0.861c-0.011-3.693-0.02-7.386-0.046-11.079c-0.004-0.41,0.225-1.131-0.257-1.151
		c-0.707-0.03-1.584-0.55-2.185,0.319c-0.314,0.334-0.119,0.782-0.246,1.144c-0.339,0.975,0.02,2.279-1.289,2.808
		c-2.885,0.024-5.771,0.045-8.658,0.074c-0.576,0.005-1.092,0.042-1.082-0.812c0.048-3.946,0.018-7.894,0.101-11.839
		c0.044-2.09,0.123-2.088,1.964-2.583c2.959,0.004,5.915-0.117,8.876,0.162c2.141,0.201,3.071,0.999,3.207,3.153
		c0.031,0.508-0.034,1.026,0.196,1.509c-0.053,0.584-0.174,1.368,0.697,1.233c0.638-0.099,1.902,0.614,1.87-0.759
		c-0.051-2.236,0.4-4.414,0.517-6.624c0.009-0.285,0.02-0.57,0.028-0.856l0,0h0.002c0.262-1.136,0.062-1.34-1.337-1.348
		c-9.549-0.049-19.1,0.18-28.648,0.009c-1.7-0.031-2.023,0.459-1.468,2.189C114.764,19.354,115.937,19.168,117.021,19.451z
		 M115.683,18.281c0.014,0.021,0.023,0.043,0.019,0.065c-0.024,0-0.047,0-0.07,0C115.647,18.322,115.665,18.3,115.683,18.281z
		 M124.294,17.563c0.016,0,0.031,0,0.047,0c0.002,0,0.006,0,0.007,0l-0.001,0.001c-0.02,0-0.039,0-0.059,0
		C124.29,17.564,124.292,17.564,124.294,17.563z M125.774,56.017c-0.011-0.018-0.02-0.037-0.03-0.055
		c0.026,0.001,0.049,0.003,0.075,0.003C125.806,55.984,125.79,55.999,125.774,56.017z M122.523,38.59c0.003,0,0.005,0,0.011,0
		c-0.006,0.003-0.008,0.005-0.011,0.008C122.523,38.596,122.523,38.593,122.523,38.59z M125.59,24.077
		c-0.002-0.006-0.004-0.011-0.006-0.016c0.006,0.003,0.011,0.009,0.018,0.012C125.597,24.075,125.593,24.075,125.59,24.077z
		 M120.764,49.145c0,0.001,0,0.002,0,0.003l0,0l0,0l0,0c-0.002,0-0.004,0-0.006,0C120.76,49.146,120.762,49.146,120.764,49.145z
		 M120.983,55.042c0,0.014,0,0.03,0,0.044c-0.008-0.014-0.018-0.024-0.026-0.037C120.966,55.046,120.975,55.044,120.983,55.042z
		 M126.917,29.127c0,0.001,0.002,0.001,0.002,0.002s-0.002,0.002-0.002,0.002C126.917,29.129,126.917,29.128,126.917,29.127z
		 M126.925,27.154c-0.004,0.001-0.004,0.003-0.008,0.005c0-0.002,0-0.005,0-0.007L126.925,27.154c0-0.016,0-0.031,0-0.046
		c0.009,0.007,0.018,0.012,0.026,0.018C126.942,27.134,126.934,27.144,126.925,27.154z M119.362,45.627
		c-0.013,0.09-0.02,0.182-0.028,0.273c-0.002,0.049-0.002,0.098-0.002,0.146c-0.002-0.013-0.004-0.026-0.005-0.041
		c0.001-0.035,0.003-0.07,0.007-0.105C119.337,45.809,119.345,45.717,119.362,45.627z M119.668,28.033c0,0.001,0,0.002,0.001,0.004
		c-0.001,0-0.001,0.001-0.001,0.001C119.668,28.037,119.668,28.034,119.668,28.033z M119.669,52.66c0,0.004-0.001,0.005-0.003,0.008
		c0-0.004,0-0.008,0-0.013C119.668,52.656,119.669,52.658,119.669,52.66z M124.501,57.726c0.002,0.011,0.002,0.021,0.002,0.032
		c-0.006-0.01-0.009-0.021-0.015-0.031C124.492,57.727,124.497,57.727,124.501,57.726z M124.503,57.943L124.503,57.943
		L124.503,57.943L124.503,57.943z M140.777,42.108c0-0.007,0-0.014,0-0.021c0.004,0.003,0.008,0.004,0.013,0.006
		C140.785,42.1,140.781,42.104,140.777,42.108z M134.78,17.978c-0.002-0.017-0.004-0.034-0.006-0.052
		c0.023-0.003,0.044-0.006,0.065-0.011C134.82,17.939,134.8,17.957,134.78,17.978z M142.348,24.952L142.348,24.952L142.348,24.952
		L142.348,24.952z M142.293,24.953c0.02,0,0.055-0.001,0.055-0.001c0,0.015,0,0.027-0.002,0.043
		c-0.019-0.013-0.04-0.026-0.062-0.039C142.288,24.955,142.292,24.954,142.293,24.953z M130.491,56.589
		c-0.011,0-0.021,0.002-0.029,0.002c0.001-0.008,0.003-0.017,0.003-0.023C130.474,56.574,130.482,56.582,130.491,56.589z
		 M137.69,38.812c0.002,0.001,0.003,0.001,0.005,0.001l0.007-0.01l0,0c0.002,0.001,0.002,0.002,0.004,0.002
		c-0.004,0.002-0.007,0.005-0.011,0.008c0,0.003,0,0.006,0,0.01C137.693,38.819,137.692,38.815,137.69,38.812z"/>
	<path fill-rule="evenodd" clip-rule="evenodd" fill="#213766" d="M144.759,28.903c0,0.455-0.434,1.135,0.404,1.374
		c0.941,0.214,1.883,0.429,2.824,0.644c0.314,0.308,0.286,0.748,0.434,1.12c0.066,2.629,0.193,5.258,0.188,7.888
		c-0.008,4.685-0.096,9.369-0.147,14.054c-0.116,0.351-0.164,0.702-0.021,1.056c-0.101,1.191-0.128,2.425-1.566,2.889
		c-0.49,0.158-0.93,0.424-0.836,0.985c0.1,0.603,0.683,0.603,1.142,0.592c1.239-0.028,2.479-0.169,3.718-0.158
		c5.189,0.044,10.378,0.132,15.567,0.19c0.611,0.008,1.245,0.078,1.821-0.238c0.319,0.001,0.453-0.19,0.476-0.479
		c0.155-2.026,0.31-4.052,0.455-6.079c0.035-0.499,0.009-0.998-0.683-0.986c-0.587,0.01-1.231-0.014-1.188,0.874
		c-0.222,0.949-0.441,1.898-0.662,2.849c-0.187,0.525-0.181,1.121-1.047,1.135c-3.11,0.051-6.217,0.247-9.331,0.172
		c-0.86-0.021-1.196-0.291-1.206-1.23c-0.034-3.104-0.096-6.208-0.173-9.308c-0.033-1.372,0.373-1.451,1.467-1.503
		c2.127-0.102,4.243,0.076,6.363,0.037c0.229,0.137,0.462,0.276,0.691,0.413l0,0l0,0c0.074,0.493,0.044,1.036,0.246,1.47
		c0.279,0.604-0.105,1.393,0.562,1.858c1.358,0.292,1.664,0.096,1.601-1.144c-0.127-2.508-0.101-5.014-0.032-7.524
		c0.035-1.312-0.396-1.56-1.765-1.106c-0.042,0.091-0.065,0.182-0.065,0.272c-0.207,0.868-0.412,1.734-0.619,2.601
		c0.036,0.039,0.079,0.063,0.121,0.078c-0.004,0.004-0.009,0.008-0.013,0.011c-0.037-0.03-0.073-0.059-0.108-0.089
		c-0.657,0.752-1.649,0.306-2.413,0.679c0,0,0,0-0.002,0.001c-2.021-0.069-4.043-0.137-6.066-0.204l0,0l0,0
		c-0.029-0.474-0.099-0.948-0.084-1.419c0.071-2.269,0.133-4.539,0.258-6.805c0.156-2.844-0.284-2.531,2.767-2.756
		c2.601-0.192,5.179,0.179,7.759,0.453c0.502,0.475,0.625,1.094,0.776,1.744c0.147,0.645-0.2,1.383,0.365,1.939
		c0.211,0.153,0.429,0.209,0.669,0.07c0.64,0.079,0.82-0.268,0.857-0.841c0.093-1.387,0.174-2.779,0.353-4.158
		c0.232-1.786,0.246-1.819-1.598-1.85c-3.737-0.062-7.475,0.009-11.209,0.181c-3.372,0.154-6.735-0.098-10.102-0.19
		C145.339,28.455,144.759,28.316,144.759,28.903z M164.751,44.309c0.002,0.005,0.002,0.011,0.002,0.016
		c-0.004-0.001-0.009-0.002-0.013-0.003C164.744,44.317,164.747,44.313,164.751,44.309z M164.092,42.549
		c0,0.004-0.001,0.007-0.001,0.012c-0.006-0.003-0.011-0.004-0.017-0.006C164.08,42.553,164.085,42.551,164.092,42.549z
		 M167.875,56.075c-0.002,0.01-0.002,0.019-0.002,0.027c-0.009,0-0.018,0.001-0.029,0.005
		C167.728,56.147,167.824,56.044,167.875,56.075z M151.335,52.886c0.002,0.018,0.005,0.039,0.007,0.056
		c-0.022,0.007-0.042,0.011-0.063,0.013C151.298,52.934,151.315,52.913,151.335,52.886z M150.229,32.883
		c-0.001-0.004-0.003-0.008-0.005-0.011c0.004,0,0.007,0,0.011,0C150.231,32.875,150.231,32.879,150.229,32.883z M149.433,50.066
		c0,0.009,0,0.017,0,0.025c-0.002,0.006-0.004,0.012-0.007,0.019C149.428,50.095,149.431,50.08,149.433,50.066z M159.5,58.384
		c0.001-0.002,0.003-0.004,0.007-0.007c0,0.003,0.002,0.005,0.003,0.007C159.507,58.384,159.503,58.384,159.5,58.384z
		 M167.393,29.353L167.393,29.353L167.393,29.353c-0.018,0-0.035,0-0.053,0c0.003-0.011,0.005-0.02,0.009-0.029
		C167.364,29.333,167.378,29.342,167.393,29.353z M160.042,30.091c0.048,0.048,0.09,0.098,0.09,0.138c-0.039,0-0.077,0-0.116,0
		C160.014,30.171,160.022,30.125,160.042,30.091z M155.954,30.231c0.012-0.031,0.024-0.059,0.033-0.086
		c0.016,0.023,0.029,0.052,0.04,0.086C156.003,30.231,155.979,30.231,155.954,30.231z M148.722,55.311c0,0.01,0,0.02,0,0.031
		c-0.013-0.012-0.025-0.023-0.035-0.035c-0.008,0-0.013,0.002-0.02,0.003c0-0.002,0-0.005-0.002-0.007
		c0-0.004-0.003-0.005-0.005-0.009c0.009-0.004,0.018-0.006,0.026-0.011c0,0.007,0,0.016,0,0.023L148.722,55.311z M168.269,59.03
		c0.002,0.004,0.002,0.008,0.004,0.012c-0.002-0.003-0.004-0.007-0.006-0.009C168.269,59.031,168.269,59.031,168.269,59.03z
		 M165.864,31.506c0.007,0.003,0.014,0.007,0.021,0.01c-0.011,0.002-0.02,0.003-0.03,0.005
		C165.859,31.517,165.86,31.511,165.864,31.506z"/>
	<path fill-rule="evenodd" clip-rule="evenodd" fill="#9F968D" d="M152.072,70.239c-0.764-0.279-2.086,0.047-2.185,0.556
		c-0.218,1.124-0.367,2.262-0.545,3.395c-0.058,0.076-0.071,0.156-0.049,0.244c-0.207,1.029-0.414,2.061-0.622,3.09
		c-0.265,1.373-0.451,2.772-1.305,3.953c-0.36,1.053-1.282,1.634-2.004,2.383l0,0l0,0c-0.85,0.936-2.011,0.564-3.045,0.72
		c-0.281-0.013-0.561-0.023-0.842-0.036l0,0c-0.825-0.294-1.182-0.966-1.408-1.744c0.007-0.95,0.016-1.901,0.024-2.852
		c0.028-0.361,0.057-0.723,0.084-1.084c0,0,0,0,0-0.001c0.213-0.5,0.383-1.009,0.394-1.561l0,0c0.216-1.101,0.433-2.2,0.648-3.302
		c-0.013-1.012,0.732-1.842,0.682-2.862c0-0.146,0.001-0.292,0.001-0.438c-0.521-0.675-1.714-0.687-2.255-0.024
		c-0.003-0.002-0.007-0.004-0.012-0.007l0,0l0,0l0,0c-0.594,0.801-0.687,1.717-0.618,2.672c-0.151,0.881-0.682,1.696-0.455,2.643
		l0,0c-0.028,0.047-0.032,0.097-0.011,0.148c-0.4,0.935-0.64,1.905-0.632,2.928c-0.147,0.678-0.397,1.351-0.42,2.033
		c-0.06,1.687-0.007,3.375,1.472,4.585l0,0c0.603,0.665,1.354,0.946,2.244,0.883l0,0c1.393,0.131,2.646-0.221,3.753-1.081
		c0.411-0.089,0.719-0.325,0.945-0.673c0.002,0,0.002,0,0.002,0c0.056,0.014,0.104-0.003,0.141-0.05l0,0
		c0.3-0.27,0.603-0.539,0.902-0.81l0,0c1.236-0.005,0.587,0.888,0.525,1.317c-0.101,0.724,0.066,0.97,0.772,0.839
		c0.222,0.003,0.44,0.004,0.662,0.007c0.145-0.01,0.29-0.019,0.436-0.028c0.269-1.235,0.774-2.428,0.68-3.729l0,0
		c0.03-0.054,0.031-0.108,0.007-0.165c0.26-1.027,0.585-2.042,0.662-3.11l0,0c0.207-0.959,0.416-1.917,0.624-2.877
		c-0.123-1.38,0.669-2.604,0.678-3.961c0-0.071,0-0.143,0.002-0.215l0,0c0.066-0.207,0.191-0.414,0.188-0.618
		C152.187,71.016,152.847,70.522,152.072,70.239z M140.777,71.361c0.025,0.027,0.05,0.051,0.074,0.073
		c-0.026,0-0.053-0.003-0.079-0.007C140.774,71.405,140.776,71.383,140.777,71.361z M149.136,81.479
		c-0.002,0.002-0.002,0.003-0.004,0.005c0-0.002,0-0.003,0-0.005C149.132,81.479,149.134,81.479,149.136,81.479z M147.816,83.014
		c0.002-0.006,0.004-0.011,0.006-0.017c0.003,0.007,0.009,0.012,0.012,0.018c-0.005,0-0.01,0.002-0.016,0.002
		C147.818,83.015,147.816,83.015,147.816,83.014z M149.934,82.466c0.019-0.047,0.049-0.087,0.1-0.113
		C150,82.391,149.969,82.428,149.934,82.466z M150.649,79.047c0-0.003,0-0.005-0.001-0.008c0.018,0.012,0.034,0.024,0.052,0.038
		L150.649,79.047z M150.869,75.969c0.011-0.004,0.02-0.01,0.028-0.015c-0.002,0.009-0.002,0.019-0.004,0.027
		C150.885,75.978,150.878,75.973,150.869,75.969z"/>
	<path fill-rule="evenodd" clip-rule="evenodd" fill="#9F968D" d="M176.653,71.514c-0.49-0.702-1.188-1.08-1.997-1.282
		c-0.481-0.345-1.027-0.169-1.549-0.195c-0.512,0-1.024,0.001-1.537,0.002c-0.831-0.049-1.644-0.035-2.276,0.634l0,0
		c-0.053-0.02-0.1-0.014-0.146,0.019c-1.291,0.472-2.253,1.354-3.056,2.438c-0.954,0.886-1.574,1.955-1.804,3.242l0,0
		c-0.358,0.629-0.616,1.289-0.625,2.026c-0.074,1.1-0.105,2.2,0.018,3.3l0,0c-0.028,0.429,0.203,0.702,0.546,0.908
		c0.056,0.018,0.107,0.035,0.154,0.053c-0.055-0.009-0.107-0.024-0.154-0.053c0.121,0.435-0.042,0.93,0.284,1.318v0.001
		c0.068,0.082,0.137,0.163,0.204,0.246l0,0c0.107,0.321,0.258,0.597,0.646,0.63l0,0l0,0c0.713,0.47,1.045,1.577,2.196,1.315
		c0.418,0.254,0.849,0.475,1.359,0.436c0.594,0.271,1.188,0.266,1.783,0.004c0.003,0,0.009,0.002,0.014,0.002
		c0.438,0.012,0.813-0.145,1.144-0.42c0.198-0.014,0.396-0.028,0.592-0.042c0.774,0.082,1.163-0.653,1.804-0.852
		c0.71-0.182,0.902-0.991,1.537-1.263c0.267-0.199,0.528-0.402,0.653-0.729c0.444-0.239,0.359-0.776,0.623-1.117
		c0.185-0.064,0.209-0.228,0.237-0.388l0,0c0.687-0.365,0.673-1.12,0.83-1.709c0.471-1.762,1.2-3.539,0.288-5.385
		C177.965,73.531,177.972,72.148,176.653,71.514z M168.198,84.12c-0.697-0.36-1.28-1.216-1.649-2.168
		c-0.007-0.062-0.014-0.122-0.018-0.184c-0.012-0.208-0.06-0.444-0.218-0.541c-0.181-0.696-0.242-1.391-0.142-1.94
		c0.323-1.774,0.957-3.427,1.7-5.05c0,0,0,0,0-0.001c0.307-0.204,0.616-0.409,0.643-0.831c0.024,0.017,0.053,0.032,0.084,0.043
		c0.571,0.067,0.928-0.361,1.37-0.59c1.153-0.599,2.281-1.078,3.618-0.404c1.58,0.796,2.319,2.361,2.229,4.719
		c-0.042,1.048-0.616,2.022-0.397,3.098c0.004,0.005,0.008,0.009,0.013,0.013c-0.014,0.034-0.026,0.069-0.039,0.103
		c-0.479,0.166-0.559,0.611-0.649,1.045c0.005,0.035,0.018,0.066,0.03,0.098c-0.567,0.614-1.121,1.238-1.708,1.831
		C171.609,84.83,169.5,84.791,168.198,84.12z M163.973,80.627c0.005-0.043,0.013-0.084,0.022-0.124
		c0.004,0.039,0.006,0.081,0.006,0.124C163.992,80.627,163.983,80.627,163.973,80.627z M165.815,81.131
		c0.012,0.043,0.022,0.085,0.036,0.128c-0.022-0.051-0.044-0.089-0.066-0.119C165.794,81.136,165.805,81.133,165.815,81.131z"/>
	<path fill-rule="evenodd" clip-rule="evenodd" fill="#213766" d="M82.225,21.688c0.313,0.829,0.989,1.37,1.568,1.988
		c0.578,0.661,1.05,1.419,1.772,1.949c0.057,0.078,0.114,0.153,0.17,0.229c0.519,0.587,1.037,1.175,1.556,1.762
		c0.278,0.662,0.703,1.2,1.332,1.564c0.31,0.609,0.791,1.07,1.3,1.51c0.474,0.767,1.067,1.428,1.778,1.982h0c0,0,0,0,0,0
		c0.091,0.054,0.183,0.156,0.274,0.157c2.44,0.014,4.881,0.018,7.322,0.022c0.397,0,0.604-0.202,0.628-0.595l0,0
		c0.204-1.48,0.408-2.961,0.611-4.441c0.228-1.744,0.455-3.489,0.682-5.234c0.049-0.098,0.067-0.198,0.061-0.298
		c0.291-1.433,0.589-2.863,0.629-4.333c0.364-0.879-0.046-1.292-0.88-1.263c-6.066,0.211-12.134,0.052-18.202,0.081
		c-0.478,0.002-1.028-0.188-1.441,0.26C80.579,18.762,80.873,20.397,82.225,21.688L82.225,21.688z M97.01,19.015
		c0,0.014,0,0.028,0,0.042c-0.015-0.018-0.027-0.035-0.037-0.048C96.985,19.01,96.997,19.013,97.01,19.015z M99.863,26.934
		c0,0.009,0.001,0.014,0.001,0.023c-0.007-0.005-0.013-0.009-0.02-0.013C99.85,26.941,99.856,26.938,99.863,26.934z M89.311,27.744
		c0,0.023,0,0.046,0,0.068c-0.062,0.021-0.098,0-0.121-0.039C89.229,27.766,89.269,27.756,89.311,27.744z M99.79,32.17
		c0.003-0.004,0.007-0.008,0.01-0.011l0,0c0.033,0.024,0.064,0.05,0.096,0.075C99.862,32.207,99.827,32.186,99.79,32.17z"/>
	<path fill-rule="evenodd" clip-rule="evenodd" fill="#9F968D" d="M163.889,70.229c-0.046-0.498-0.924-0.297-1.356-0.167
		c-1.378,0.418-2.394,1.344-3.12,2.585l0,0c-0.062,0.065-0.125,0.13-0.187,0.195c0,0,0,0-0.002,0
		c-0.277,0.007-0.555,0.014-0.834,0.02l0,0c-0.074-0.577-0.132-1.156,0.196-1.682c0.314-0.506,0.009-0.791-0.398-0.874
		c-0.467-0.093-0.996-0.263-1.435,0.145l0,0c-0.169,0.086-0.188,0.238-0.183,0.401l0,0c-0.547,0.919-0.477,1.925-0.42,2.931
		c-0.211,0.806-0.423,1.611-0.634,2.418c-0.007,0.366-0.015,0.732-0.02,1.099c0,0.001,0,0.001,0,0.001
		c0.002,0.219,0.002,0.438,0.004,0.658c-0.402,0.432-0.571,0.958-0.617,1.533c-0.021,0.418-0.044,0.836-0.064,1.254l0,0
		c-0.653,1.5-0.541,3.175-1.071,4.707c-0.111,0.321-0.035,0.664,0.43,0.697l0,0c0.389,0.383,0.747-0.019,1.119-0.043
		c0.926,0.182,1.138-0.326,1.066-1.106c-0.002,0-0.002,0-0.002,0l0,0c0.011-0.148,0.02-0.296,0.029-0.444
		c0.009-0.217,0.018-0.434,0.026-0.651l0,0c0.241-0.563,0.399-1.146,0.438-1.762c0.213-0.282,0.163-0.626,0.225-0.946
		c0.281-1.465,0.404-2.972,1.1-4.331c0.422-0.885,0.845-1.771,1.269-2.654l0,0c0.599-0.276,0.841-0.925,1.345-1.301
		c0.78,0.139,1.181-0.865,1.981-0.656l0,0l0,0c0.146-0.004,0.291-0.007,0.438-0.01C164.291,71.88,163.946,70.874,163.889,70.229z
		 M158.147,71.967c0.029-0.104,0.058-0.2,0.082-0.29C158.21,71.767,158.185,71.863,158.147,71.967
		C158.147,71.968,158.147,71.968,158.147,71.967z M155.779,78.217c-0.014,0.007-0.029,0.015-0.043,0.021
		c-0.002-0.021,0.001-0.039,0-0.062C155.752,78.19,155.764,78.204,155.779,78.217z M155.295,85.219
		c-0.002-0.018-0.003-0.033-0.003-0.05c0.012-0.021,0.024-0.039,0.036-0.057C155.317,85.145,155.306,85.178,155.295,85.219z"/>
	<path fill-rule="evenodd" clip-rule="evenodd" fill="#9F968D" d="M117.476,70.887c-0.144-0.224-0.374-0.217-0.601-0.225l0,0
		c-0.007-0.065-0.028-0.125-0.065-0.181c-0.409-0.519-0.983-0.465-1.549-0.448c-2.431-0.313-4.456,0.498-6.148,2.229l0,0v-0.001
		c-0.634,0.675-1.404,1.233-1.791,2.117c-0.007,0-0.015,0.007-0.021,0.021c-0.276,0.237-0.321,0.594-0.455,0.905l0,0
		c-0.371,1.025-1.213,1.891-1.05,3.097c-0.024,0.813-0.47,1.616-0.061,2.439c0.039,0.504,0.077,1.008,0.116,1.513
		c-0.027,0.488,0.335,0.773,0.586,1.115c-0.06,1.088,0.854,1.527,1.523,1.964c2.834,1.85,5.734,1.375,8.604,0.002
		c0.077-0.146,0.156-0.292,0.233-0.437c-0.021-1.269,0.019-1.077-1.179-0.822c-2.058,0.438-4.21,1.06-6.161-0.429
		c-0.822-0.626-1.085-1.595-1.471-2.485c0.191-0.728-0.473-1.633,0.459-2.205c0.88-0.001,1.76-0.003,2.64-0.003
		c0.638,0.041,1.235-0.108,1.808-0.374l0,0c0.601-0.06,1.215-0.007,1.797-0.2c0.06-0.014,0.118-0.032,0.175-0.063
		c0.404-0.038,0.766-0.184,1.08-0.442c0.378-0.189,0.843-0.216,1.115-0.603c0.439-0.063,0.703-0.335,0.864-0.727
		c0.026-0.059,0.042-0.117,0.051-0.18l0,0c0.055,0.01,0.104-0.001,0.149-0.033l0,0C119.552,74.701,119.272,72.328,117.476,70.887z
		 M114.358,76.819L114.358,76.819c-0.003,0-0.009,0-0.009,0c0.003,0.001,0.007,0.001,0.01,0.003c0,0,0,0.001,0,0.002
		c-0.569,0.074-1.166-0.065-1.708,0.213c-0.002-0.004-0.003-0.008-0.005-0.011c-0.083-0.07-0.177-0.125-0.281-0.159
		c-1.167-0.213-2.286,0.067-3.408,0.313c-0.002-0.019-0.003-0.037-0.003-0.056c-0.109-0.604,0.222-1.151,0.227-1.742
		c-0.019-0.017-0.038-0.03-0.057-0.044c0.011-0.002,0.021-0.003,0.032-0.004c0.595-0.506,1.17-1.024,1.313-1.837
		c0.015,0.002,0.031,0.008,0.046,0.009c0.68-0.211,1.203-0.627,1.593-1.22c0.007-0.032,0.008-0.064,0.011-0.096
		c1.295-0.521,2.582-0.592,3.859,0.056c0.007,0.018,0.018,0.035,0.03,0.052c0.078,0.133,0.181,0.217,0.337,0.201
		c-0.002,0.004-0.003,0.008-0.005,0.011c-0.037,0.101-0.032,0.196,0.023,0.287c0.037,0.038,0.074,0.071,0.112,0.102
		c0.167,0.412,0.246,0.835,0.202,1.27c-0.081,0.148-0.135,0.313-0.191,0.478c-0.013,0.102-0.002,0.201,0.028,0.299
		c0.007,0.014,0.018,0.026,0.026,0.04c-0.107,0.413-0.538,0.571-0.769,0.886c-0.041-0.01-0.079-0.019-0.121-0.02
		C115.133,76.061,114.485,76.092,114.358,76.819z M110.232,73.343c-0.011-0.001-0.02-0.003-0.029-0.003
		c0.008-0.03,0.022-0.057,0.035-0.084C110.239,73.282,110.234,73.313,110.232,73.343z M113.937,71.569
		c0.001,0,0.001,0.002,0.001,0.003c0,0,0,0.001-0.001,0.001C113.937,71.571,113.937,71.569,113.937,71.569z M116.362,76.127
		c0.016,0.016,0.028,0.034,0.041,0.054c-0.013,0.007-0.023,0.013-0.035,0.021C116.368,76.173,116.364,76.15,116.362,76.127z
		 M113.749,78.354c0.012,0.016,0.024,0.029,0.039,0.045c-0.021,0-0.042-0.001-0.063-0.002
		C113.733,78.384,113.74,78.37,113.749,78.354z"/>
	<path fill-rule="evenodd" clip-rule="evenodd" fill="#9F968D" d="M189.619,70.231c-0.715-0.325-1.472-0.2-2.216-0.206
		c-0.365,0.007-0.73,0.013-1.098,0.02c-1.513-0.182-2.473,0.697-3.352,1.739c-0.356,0.192-0.621,0.456-0.685,0.878
		c-0.233,0.242-0.371,0.527-0.38,0.868c-0.029,0.063-0.051,0.126-0.066,0.188c-0.237,0.698-0.209,1.398,0.058,2.098
		c0,0.002,0,0.002,0.002,0.003c0.024,0.13,0.051,0.261,0.077,0.39l0,0c0,0,0,0,0,0.001c0.094,0.511,0.313,0.933,0.812,1.16l0,0
		c0.178,0.369,0.567,0.45,0.871,0.648l0,0c0.188,0.328,0.464,0.543,0.833,0.634l-0.002,0.001c0.271,0.406,0.759,0.426,1.137,0.641
		c0.049,0.008,0.096,0.026,0.144,0.054c-0.046-0.018-0.093-0.035-0.144-0.054c0.85,0.848,1.352,1.789,1.202,3.073
		c-0.084,0.711-0.609,1.12-0.804,1.727c-0.392,0.209-0.782,0.419-1.172,0.628c-0.031,0.011-0.062,0.026-0.091,0.049
		c-1.421-0.022-2.863,0.1-4.189-0.592c-0.227-0.117-0.409-0.075-0.568,0.134c-0.598,0.777-0.279,1.595,0.7,1.786
		c0.464,0.092,0.926,0.186,1.39,0.278l0,0c1.551,0.74,5.121-0.313,5.99-1.817l-0.001,0.005c0.652-0.187,0.767-0.75,0.907-1.295l0,0
		l0,0v-0.001c0,0,0,0-0.002,0l-0.012-0.011c0.387-0.711,0.202-1.475,0.211-2.221c-0.021-0.222-0.042-0.444-0.063-0.667l0,0l0,0
		c-0.225-1.124-0.998-1.825-1.885-2.438c-0.003,0.004-0.005,0.007-0.007,0.011c0-0.004-0.002-0.008,0-0.012
		c-0.004,0.001-0.005,0.001-0.009,0.003c0.004-0.004,0.005-0.006,0.007-0.008c0,0.001,0.002,0.003,0.002,0.005
		c0-0.001,0.002-0.001,0.004-0.001c0.001,0,0.003,0.001,0.003,0.002c0.002-0.002,0.002-0.003,0.004-0.005
		c-0.796-0.583-1.592-1.166-2.387-1.75c-0.893-1.023-1.063-2.106-0.268-3.269c0.14-0.228,0.278-0.456,0.415-0.686
		c0.737-0.004,1.312-0.54,2.026-0.615c0.262,0,0.523,0,0.785,0.001l0,0l0,0c0.313,0.087,0.671,0.104,0.93,0.272
		c0.654,0.428,1.211,0.352,1.566-0.308C190.663,70.893,190.178,70.513,189.619,70.231z"/>
	<path fill-rule="evenodd" clip-rule="evenodd" fill="#213766" d="M79.209,52.193c-0.878-1.029-1.757-2.06-2.635-3.088
		c-2.052-2.357-4.104-4.714-6.156-7.071c-0.726-1.214-1.677-2.246-2.647-3.261c-0.955-1.094-1.91-2.188-2.865-3.281
		c-0.078-0.198-0.193-0.375-0.426-0.372c-0.221,0.003-0.241,0.197-0.257,0.369c-0.153,1.761-0.755,3.462-0.689,5.251
		c-0.656,2.697-0.765,5.476-1.247,8.202c-0.437,2.469-0.736,4.964-1.068,7.452c-0.264,1.979-0.487,3.963-0.729,5.945
		c-0.041,0.058-0.048,0.118-0.019,0.184c-0.235,1.532-0.53,3.059-0.683,4.6c-0.087,0.886-0.465,1.813,0.067,2.694
		c0.125,0.167,0.3,0.177,0.488,0.176c4.087-0.005,8.174,0.002,12.26-0.018c1.771-0.007,3.542-0.065,5.312-0.101
		c0.43-0.17,0.373-0.579,0.451-0.921c0.35-1.528,0.335-3.101,0.554-4.644c0.395-0.534,0.278-1.149,0.279-1.746
		c0.107-1.701,0.725-3.335,0.666-5.058c0.145-0.781,0.221-1.583,0.45-2.338C80.709,53.863,80.261,52.93,79.209,52.193z
		 M63.578,63.443c0-0.006,0-0.013,0-0.02c0.007,0.004,0.016,0.006,0.023,0.009C63.593,63.437,63.586,63.439,63.578,63.443z
		 M76.781,60.568c0.004,0.004,0.007,0.009,0.012,0.014c-0.006,0-0.011,0.002-0.017,0.002C76.777,60.579,76.779,60.573,76.781,60.568
		z M77.216,53.558c-0.005-0.001-0.01-0.002-0.015-0.004c0.005-0.001,0.01-0.005,0.015-0.007
		C77.216,53.55,77.216,53.554,77.216,53.558z M63.577,46.714c0.004,0.004,0.009,0.008,0.013,0.012c-0.001,0-0.004,0-0.005,0
		c-0.003-0.002-0.005-0.006-0.007-0.008C63.577,46.717,63.577,46.715,63.577,46.714z M62.488,56.689
		c-0.04-0.003-0.076-0.01-0.107-0.019c0.033-0.032,0.064-0.054,0.094-0.049C62.481,56.645,62.484,56.668,62.488,56.689z
		 M63.798,46.727L63.798,46.727L63.798,46.727L63.798,46.727z M61.383,69.167c-0.001-0.002-0.002-0.004-0.004-0.005
		c0.002,0,0.004,0,0.006,0C61.385,69.163,61.384,69.165,61.383,69.167z M77.216,69.169c-0.011,0.005-0.022,0.009-0.035,0.014
		c0-0.005-0.001-0.01-0.002-0.014C77.191,69.169,77.204,69.169,77.216,69.169z"/>
	<path fill-rule="evenodd" clip-rule="evenodd" fill="#9F968D" d="M94.138,55.082C94.138,55.082,94.138,55.082,94.138,55.082
		C94.138,55.082,94.138,55.082,94.138,55.082c0.318-0.356,0.636-0.713,0.954-1.067c0.584-0.26,0.412-0.979,0.814-1.348
		c0.037-0.043,0.05-0.091,0.04-0.146l0,0c0.349-0.387,0.494-0.868,0.641-1.349l0,0c0.923-1.851,0.771-3.698-0.019-5.542
		c-0.306-0.42-0.448-0.954-0.885-1.284c-0.503-0.601-1.005-1.202-1.508-1.804l0,0l0,0c-0.508-0.874-1.183-1.602-1.964-2.235l0,0
		c-0.814-0.956-1.628-1.911-2.442-2.867c-0.578-0.591-1.035-1.306-1.777-1.728c-0.358-0.78-0.857-1.449-1.539-1.976
		c-0.249-0.473-0.611-0.833-1.081-1.086c-0.059-0.461-0.334-0.782-0.685-1.054c-0.031-0.054-0.079-0.08-0.142-0.077
		c-0.59-0.738-1.179-1.477-1.77-2.215c0,0,0,0,0,0c-0.746-0.74-1.248-1.729-2.243-2.216c-0.626-1.104-1.243-2.217-2.41-2.868
		c0-0.001,0-0.001,0-0.001c-0.055-0.056-0.11-0.111-0.166-0.167c0,0,0,0-0.001,0c-0.188-0.548-0.351-1.108-0.723-1.573v-0.001
		c0.029-0.054,0.026-0.108-0.008-0.16c-0.318-1.186-0.635-2.369-0.418-3.616c0.279-1.601-0.183-1.978-1.794-1.466
		c-0.843-0.102-1.594,0.117-2.253,0.65c-0.738,0.122-1.299,0.599-1.921,0.956c-0.562,0.286-0.945,0.774-1.373,1.213c0,0,0,0,0-0.001
		c-1.025,0.677-1.736,1.636-2.387,2.65l0,0c-0.268,0.458-0.535,0.917-0.803,1.376c-0.043,0.429-0.087,0.858-0.13,1.286l0,0.001
		c-0.705,1.207-0.564,2.403,0.051,3.592c-0.093,0.697,0.282,1.217,0.66,1.737c0.436,0.79,1.031,1.441,1.736,1.997h0c0,0,0,0,0,0
		c0.442,0.39,0.564,1.043,1.113,1.344c0.188,0.241,0.273,0.588,0.653,0.629c0.002-0.002,0.004-0.002,0.006-0.004
		c0.086,0.403,0.324,0.696,0.663,0.916v0.001c0.15,0.138,0.299,0.277,0.449,0.415c0.098,0.653,0.684,0.893,1.09,1.285
		c0,0.001,0,0.001,0,0.001c0.331,0.946,1.235,1.422,1.791,2.185c0.075,0.075,0.151,0.15,0.227,0.226
		c0.492,0.75,1.044,1.451,1.726,2.04l0,0c0.225,0.275,0.45,0.549,0.675,0.824c0,0,0,0,0.001,0c0.366,0.446,0.733,0.892,1.1,1.338
		c0.11,0.328,0.362,0.529,0.64,0.704c0.681,1.194,1.852,1.96,2.657,3.045c0.047,0.224,0.208,0.343,0.399,0.432
		c0.593,0.673,1.072,1.446,1.789,2.007l0,0c0.656,0.867,1.311,1.733,1.966,2.6l0,0c0.015,0.731,0.378,1.342,0.688,1.97
		c-0.002,0.88-0.004,1.76-0.007,2.64c-0.026,0.049-0.035,0.102-0.025,0.156c0,0,0,0,0,0c-0.458,0.686-0.231,0.961,0.549,1.006
		c1.149,0.067,2.234-0.098,3.233-0.693c0.234,0.105,0.456,0.131,0.644-0.09l0,0c0.236-0.19,0.473-0.38,0.709-0.57c0,0,0,0,0,0
		c0.359-0.22,0.719-0.44,1.078-0.661l0,0c0.286-0.239,0.571-0.479,0.857-0.72l0,0l0,0C93.555,55.503,93.847,55.292,94.138,55.082z
		 M77.434,26.283c-0.003-0.002-0.007-0.003-0.01-0.004c0.004-0.001,0.007-0.003,0.011-0.005
		C77.435,26.276,77.434,26.279,77.434,26.283z M78.753,39.249c0,0.007,0,0.014,0,0.021c-0.008,0.002-0.016,0.003-0.023,0.005
		C78.738,39.267,78.745,39.259,78.753,39.249z M82.509,31.393c-0.005-0.021-0.011-0.039-0.016-0.061
		c0.019,0.012,0.039,0.02,0.058,0.031C82.538,31.372,82.523,31.383,82.509,31.393z M71.056,21.875
		c-0.005,0.019-0.009,0.038-0.015,0.056c-0.017-0.009-0.034-0.02-0.05-0.027C71.013,21.893,71.034,21.883,71.056,21.875z
		 M71.716,31.505c0,0.016,0,0.032,0,0.046c-0.023-0.003-0.046-0.006-0.069-0.01C71.67,31.529,71.692,31.516,71.716,31.505z
		 M85.599,50.027c-0.008,0-0.017,0-0.026,0c0.003-0.009,0.007-0.018,0.01-0.026C85.588,50.009,85.594,50.018,85.599,50.027z
		 M75.014,17.475c0.002,0.01,0.003,0.022,0.005,0.033c-0.007-0.004-0.014-0.007-0.021-0.011
		C75.003,17.489,75.008,17.482,75.014,17.475z M69.956,22.535c0,0.036,0,0.072,0,0.109c-0.061-0.03-0.122-0.054-0.183-0.076
		C69.834,22.556,69.894,22.542,69.956,22.535z M78.303,42.424c0.019,0.022,0.037,0.044,0.055,0.069
		c-0.016,0.019-0.028,0.038-0.045,0.055C78.306,42.508,78.304,42.466,78.303,42.424z M92.221,55.573
		c0.041-0.033,0.087-0.065,0.129-0.1c0.014,0.018,0.028,0.033,0.04,0.053C92.326,55.542,92.271,55.558,92.221,55.573z M91.73,53.986
		c0.016,0.002,0.029,0,0.043,0.002c-0.002,0.001-0.005,0.003-0.008,0.005C91.754,53.991,91.743,53.988,91.73,53.986z M95.467,45.027
		c-0.021-0.006-0.042-0.014-0.062-0.023c0.021-0.011,0.042-0.02,0.066-0.034C95.472,44.99,95.469,45.009,95.467,45.027z
		 M92.407,56.434c0.019-0.038,0.03-0.078,0.039-0.119C92.459,56.354,92.45,56.394,92.407,56.434z"/>
	<path fill-rule="evenodd" clip-rule="evenodd" fill="#9F968D" d="M102.942,70.079c-0.218,0.004-0.436-0.019-0.653-0.029
		c0,0.019,0.003,0.036,0.006,0.055c-0.008-0.017-0.012-0.035-0.006-0.055c-0.661-0.007-1.321-0.012-1.982-0.018
		c-0.294,0.019-0.588,0.036-0.883,0.054c-0.495-0.042-0.75,0.357-1.092,0.598l0,0c0,0,0,0,0-0.001
		c-1.397,0.374-2.305,1.235-2.649,2.658c-0.001,0.073-0.001,0.146-0.002,0.221c0.031,0.6-0.843,1.195-0.008,1.798
		c0,0.001,0,0.001,0,0.001c-0.103,0.773,0.188,1.4,0.726,1.933c0.559,0.899,1.563,1.205,2.369,1.774
		c0.688,0.34,1.089,0.977,1.572,1.527l0,0l0,0c0.373,0.521,0.392,1.121,0.395,1.725c-0.191,0.284-0.412,0.554-0.437,0.917l0,0
		c-0.032,0.046-0.04,0.095-0.025,0.147c-0.478,0.432-0.89,0.95-1.535,1.16c-1.163,0.234-2.325,0.353-3.489,0.007
		c-0.526,0.04-1.073-0.892-1.58,0.04c-0.47,0.863-0.246,1.189,1.066,1.538c1.497,0.708,2.995,0.667,4.492,0.003
		c0,0.002-0.001,0.004-0.002,0.006c0.452,0.018,0.838-0.139,1.161-0.453h0.001c0.073-0.067,0.147-0.135,0.221-0.204l0.074,0.005
		c0,0,0.07-0.026,0.07-0.027v0.001c0.506-0.226,0.921-0.545,1.14-1.074c-0.002-0.01-0.003-0.019-0.006-0.028
		c1.046-0.788,1.271-1.867,1.085-3.093c-0.023-0.291-0.046-0.584-0.068-0.876h0l0,0c-0.278-0.957-0.87-1.681-1.67-2.25
		c-0.967-0.72-1.933-1.439-2.898-2.16c-0.149-0.22-0.299-0.438-0.447-0.658c0.059-0.79-0.108-1.608,0.275-2.361
		c-0.021-0.026-0.044-0.047-0.068-0.063c0.003-0.001,0.005-0.003,0.007-0.004l0,0l0.062,0.067c0.222-0.229,0.445-0.459,0.667-0.689
		c0,0,0.001,0,0.001,0c0.06-0.057,0.121-0.11,0.181-0.167c0.427-0.158,0.852-0.316,1.278-0.474c0.023-0.009,0.047-0.017,0.069-0.026
		l0.082,0.024l0.081-0.024l0,0c0.443-0.004,0.885-0.008,1.327-0.013c0,0,0,0.001,0,0.001c0.608-0.021,1.056,1.101,1.781,0.25
		c0,0,0,0.001,0,0.001c0.41-0.268,0.612-0.7,0.472-1.119C103.94,70.237,103.457,70.072,102.942,70.079z M100.042,77.979
		c0.002,0.005,0.003,0.01,0.005,0.015c-0.02-0.006-0.036-0.015-0.056-0.021C100.008,77.973,100.025,77.977,100.042,77.979z"/>
	<path fill-rule="evenodd" clip-rule="evenodd" fill="#9F968D" d="M134.178,70.688L134.178,70.688L134.178,70.688
		c-0.074,0.002-0.146,0.005-0.218,0.008c-0.046-0.032-0.097-0.041-0.151-0.029v-0.001c-1.725-0.803-3.502-0.857-5.304-0.555
		c-0.223-0.035-0.464-0.007-0.734,0.141c-1.717,0.635-3.509,1.148-4.604,2.805c-0.479,0.236-0.754,0.636-0.904,1.134l0,0l0,0l0,0
		c0.002,0,0.002,0,0.003,0.001c-0.068,0.062-0.137,0.123-0.205,0.186l0,0c-0.555,0.58-0.864,1.294-1.1,2.048
		c-0.028,0.042-0.033,0.088-0.02,0.135l0,0c-0.418,0.686-0.713,1.405-0.641,2.23l0,0c-0.348,1.992-0.513,3.948,1.047,5.583
		c0.046,0.41,0.358,0.556,0.682,0.689l0,0c0.969,1.425,2.436,1.034,3.793,1.041c0.537,0.146,0.948-0.088,1.319-0.44
		c0.458-0.19,1.087-0.041,1.329-0.664l0,0c0.438-0.371,0.875-0.741,1.313-1.112c0.936-0.055,0.584,0.655,0.66,1.112
		c-0.105,0.581-0.211,1.161-0.316,1.742c0,0,0,0,0,0.001c-0.214,0.336-0.444,0.668-0.387,1.1l0,0
		c-1.067,2.498-2.933,3.724-5.671,3.563c-0.465-0.171-0.854,0.31-1.315,0.158c-0.079-0.059-0.156-0.117-0.233-0.176
		c-0.376-0.127-0.75-0.343-1.131-0.356c-0.572-0.022-1.212-0.634-1.729,0.126c-0.054,0.367-0.108,0.734,0.034,1.095l0,0l0,0
		c0.495,0.416,1.054,0.674,1.71,0.692c0-0.001,0-0.001,0.002-0.002c-0.002,0-0.002,0.002-0.002,0.002
		c1.927,0.814,3.852,0.403,5.774-0.006c0.004-0.001,0.008-0.001,0.009-0.002c0.173,0.023,0.32-0.015,0.426-0.161
		c0.904-0.488,2.002-0.712,2.46-1.807c0,0,0,0,0.002,0c0.803-0.811,1.612-1.617,1.7-2.854c0.029-0.04,0.047-0.084,0.053-0.129
		c0.223-0.542,0.567-1.037,0.621-1.643l0,0c0.151-0.729,0.303-1.458,0.453-2.187c0.162-1.573,0.963-3.031,0.836-4.655
		c0.008-0.129,0.015-0.259,0.021-0.389c0.028-0.089,0.051-0.178,0.065-0.265c0.126-0.511,0.251-1.021,0.377-1.53l0,0l0,0l0,0
		c-0.003-0.002-0.005-0.002-0.009-0.004c0.301-0.327,0.215-0.728,0.209-1.113c0.006-0.206,0.011-0.41,0.016-0.616
		c0.294-0.341,0.224-0.745,0.2-1.142c0.03-0.061,0.035-0.122,0.015-0.186l0,0c0.607-0.22,0.328-0.712,0.344-1.113
		c-0.001,0.001-0.001,0.001-0.001,0.001l0,0c0.177-0.431,0.139-0.88,0.126-1.326l0,0l0,0l0,0c-0.002,0-0.002,0.002-0.004,0.002
		C135.68,70.73,134.949,70.692,134.178,70.688z M128.902,90.716c0.005-0.002,0.01-0.005,0.016-0.008
		c0.002,0.005,0.002,0.008,0.003,0.013C128.916,90.72,128.907,90.718,128.902,90.716z M132.02,80.659
		c-0.013-0.022-0.024-0.042-0.039-0.06c0.037-0.008,0.07-0.017,0.104-0.024C132.065,80.603,132.042,80.631,132.02,80.659z
		 M133.96,72.899c-0.002-0.006-0.004-0.011-0.005-0.015c0.019-0.005,0.036-0.008,0.053-0.009
		C133.991,72.883,133.978,72.89,133.96,72.899z M124.638,74.337c0.118-0.098,0.233-0.196,0.341-0.303
		c0.317-0.034,0.532-0.283,0.771-0.497c0.69-0.613,1.453-1.151,2.273-1.46c0.63-0.19,1.305-0.271,2.035-0.223
		c0.009,0,0.016,0.001,0.024,0.002c2.35,0.407,2.747,0.181,2.103,2.579c-0.193,1.79-0.567,3.542-1.093,5.263
		c0,0.001,0,0.003-0.002,0.004c-0.395,0.723-0.792,1.444-1.188,2.166c-0.04,0.037-0.083,0.074-0.123,0.109
		c-0.074,0.071-0.144,0.147-0.204,0.23c-0.049,0.069-0.102,0.135-0.154,0.201c-0.416,0.352-0.814,0.724-1.152,1.157
		c-0.049,0.035-0.098,0.071-0.146,0.107c-0.119,0.03-0.242,0.053-0.339,0.116c-2.134,1.441-5.112-0.235-5.095-3.041
		c0.012-2.014,0.473-3.895,1.527-5.612c0.138-0.225,0.243-0.442,0.285-0.686C124.543,74.409,124.589,74.37,124.638,74.337z
		 M121.644,79.939c-0.007,0.012-0.016,0.019-0.024,0.028c-0.011-0.011-0.021-0.021-0.03-0.029
		C121.606,79.938,121.626,79.939,121.644,79.939z M121.644,79.939c0.003-0.021,0.009-0.041,0.012-0.062
		c0.013,0.008,0.026,0.017,0.039,0.024C121.677,79.915,121.663,79.928,121.644,79.939z M123.234,92.037
		c-0.012,0.019-0.024,0.036-0.037,0.054c-0.005-0.019-0.009-0.034-0.014-0.054C123.199,92.037,123.217,92.037,123.234,92.037z"/>
</g>
</svg>
