<?xml version="1.0" encoding="utf-8"?>
<!-- Generator: Adobe Illustrator 16.0.0, SVG Export Plug-In . SVG Version: 6.00 Build 0)  -->
<!DOCTYPE svg PUBLIC "-//W3C//DTD SVG 1.1//EN" "http://www.w3.org/Graphics/SVG/1.1/DTD/svg11.dtd">
<svg version="1.1" id="Capa_1" xmlns="http://www.w3.org/2000/svg" xmlns:xlink="http://www.w3.org/1999/xlink" x="0px" y="0px"
	 width="250px" height="110px" viewBox="0 0 250 110" enable-background="new 0 0 250 110" xml:space="preserve">
<g>
	<path fill="#A93439" d="M95.39,84.919l0.009-6.569c4.117,0,5.63-0.21,6.349,4.841h0.432v-5.62l-11.216,0.008v0.771h1.942v14.458
		h-2.14v0.765h11.558v-5.911h-0.576c-0.578,4.467-1.709,5.15-4.887,5.15H95.39v-7.028h0.852c1.425,0.035,2.237,0.871,2.527,3.318
		h0.524l-0.003-7.263c-0.007,0.014-0.516,0-0.516,0c0,0.035-0.102,3.126-2.593,3.08H95.39"/>
	<path fill="#A93439" d="M90.805,85.207h-6.326v0.719h2.164v5.199c-0.365,1.319-2.31,1.871-2.892,1.871
		c-4.042,0-3.752-5.911-3.752-7.498c0-1.447-0.144-7.501,3.752-7.501c2.748,0,4.191,2.739,4.771,5.193h0.438
		c0-1.011,0.016-5.826,0.007-5.815c0.009-0.035-1.883,1.358-1.89,1.337c0.044-0.011-0.864-1.291-3.326-1.291
		c-4.768,0-6.518,4.759-6.503,8.077c0.02,3.038,1.423,8.217,6.503,8.217c1.601,0,2.725-0.812,3.326-1.736
		c0.007-0.018,2.015,1.587,2.022,1.594v-7.646h1.706V85.207"/>
	<path fill="#A93439" d="M146.093,87.8l2.305-6.914l2.459,6.914H146.093 M137.126,85.04h-2.595v-6.701h3.318
		c1.951,0.295,2.033,2.547,2.033,3.262C139.883,83.336,139.155,85.04,137.126,85.04 M164.748,87.661
		c-0.578,4.467-1.709,5.14-4.886,5.14h-0.192V78.343h2.024v-0.779h-6.649v0.779h2.021v14.458h-1.604l-5.904-15.668h-0.869
		c0.02-0.011-4.905,14.213-4.917,14.256c0.012-0.043-0.37,1.224-1.182,1.376c-0.745,0.036-0.691-0.355-0.691-0.487v-2.742
		c0-0.718-0.054-2.354-0.806-3.102c-0.834-0.846-2.264-0.906-2.233-0.938c0,0,3.631-0.751,3.631-4.2c0-2.419-1.68-3.625-4.491-3.728
		h-7.983v0.775h2.041v14.458h-2.041v0.771h6.548v-0.771h-2.043v-6.95h2.723c4.727,0.392-0.812,7.726,5.379,7.722h3.905v-0.771
		c-0.221,0-1.648,0.039-1.741-0.953c-0.057-0.723,0.943-3.312,0.943-3.312h5.312c-0.002-0.007,1.652,4.265,1.668,4.265h-1.852v0.771
		h14.471v-5.911H164.748z"/>
	<path fill="#A93439" d="M122.145,78.339c4.123,0,5.641-0.199,6.358,4.852h0.436v-5.62h-16.354v0.769h0.427
		c0.576,0,1.947,0.043,2.025,1.245v9.226l-7.65-11.239h-4.167v0.769h0.692c0.821,0,1.974,0.035,2.025,1.245V91.41
		c0,1.148-1.729,1.586-2.449,1.586h-0.007v0.576h5.636v-0.576c-0.722,0-2.458-0.438-2.458-1.586l0.018-10.407
		c3.031,4.325,8.746,12.573,8.798,12.569h0.286V79.584c0.08-1.202,1.449-1.245,2.025-1.245h1.879v14.469h-2.142v0.765h11.562v-5.911
		h-0.582c-0.574,4.467-1.707,5.15-4.887,5.15h-1.471v-7.028h0.854c1.426,0.035,2.237,0.868,2.523,3.318h0.531l-0.004-7.263
		c-0.013,0.014-0.518,0-0.518,0c0,0.035-0.104,3.126-2.595,3.08h-0.791V78.339"/>
	<polyline fill="#A93439" points="172.599,78.339 172.599,77.563 166.069,77.563 166.069,78.339 168.121,78.339 168.128,92.793 
		166.069,92.793 166.069,93.572 172.599,93.572 172.599,92.793 170.549,92.793 170.549,78.339 172.599,78.339 	"/>
	<path fill="#A93439" d="M149.347,64.272c0.19-0.498,0.571-0.812,1.091-0.911l5.276-1.181l-0.476-4.707l-0.014-0.102
		c-0.134-0.619-0.524-2.495-2.976-2.696c-9.436-0.763-11.625-2.163-13.921-3.642c0-0.007-0.005-0.016-0.009-0.021l-0.014,0.005
		l-0.146-0.098c-2.45-1.583-4.885-1.597-5.123-1.59c-2.675,0.003-6.056,1.06-6.333,1.148c-0.815,0.238-1.58,0.482-2.318,0.719
		c-2.955,0.951-5.509,1.775-9.795,1.646l-0.782-0.023l-0.199,0.756c-0.156,0.583-1.358,5.322-0.199,8.365
		c-1.037,0.821-1.037,1.768-1.031,1.893c0.042,1.042-0.203,1.298-0.285,1.383c-0.494,0.513-2.139,0.58-3.522,0.58h-0.522
		l-0.296,0.409c-0.854,1.174-2.695,1.447-3.878,1.148c-0.518-1.579-0.532-2.788-0.032-3.507c0.59-0.85,1.846-0.942,2.354-0.942
		h0.299c1.252,0,2.272-1.024,2.272-2.283v-8.486c0.381-0.589,0.688-1.27,0.957-2.035c2.068-0.333,3.654-2.088,3.654-4.2
		c0-0.811-0.24-1.595-0.669-2.264c1.912-0.919,3.55-2.803,3.55-5.271s-1.241-3.599-2.42-4.341c0.332-0.95,0.88-2.612,1.252-4.29
		l1.659-5.934c0.741-2.328,2.674-3.831,4.935-3.831h29.181c-1.233,1.739-2.989,2.559-5.42,2.559H127.79l-0.921,1.978h15.825
		c-1.245,1.978-3.066,2.909-5.651,2.909h-11.476l-0.922,1.978h10.241c-1.245,1.901-3.045,2.803-5.579,2.803h-6.254l-0.925,1.974
		h6.557c0.063,0.08,0.228,0.38,0.228,1.181c0,1.268-1.069,2.301-2.381,2.301c-0.448,0-0.835-0.103-1.511-0.377
		c-0.289-0.123-0.577-0.246-0.867-0.368l-1.524,1.366c0.285,0.121,0.573,0.24,0.857,0.363c1.315,0.571,2.049,0.87,3.045,0.87
		c1.209,0,2.297-0.501,3.069-1.298c1.124,0.073,2.934,0.222,4.688,0.365c2.102,0.172,4.081,0.336,5.104,0.389
		c0.515,0.029,0.992,0.054,1.457,0.075c0.867,0.043,1.664,0.082,2.459,0.139c3.983,6.47,6.027,7.32,13.738,8.241
		c0.558,0.996,1.058,2.05,1.534,3.11V63.12l0.006,0.07c0.042,0.58,0.042,0.775-0.041,0.883c-0.264,0.349-1.457,0.846-1.867,1.021
		l-6.507,2.45C149.312,66.374,149.002,65.154,149.347,64.272 M147.937,67.697h-12.852l5.509-5.815
		c1.11-1.152,1.466-2.532,0.994-3.891c-0.263-0.783-0.99-2.282-1.75-3.822c2.186,1.017,5.503,1.929,12.251,2.473
		c0.81,0.068,1.024,0.346,1.188,1.085l0.295,2.909l-3.528,0.786c-1.183,0.235-2.107,1.011-2.546,2.138
		C147.018,64.799,147.181,66.261,147.937,67.697 M124.753,67.697c-0.355-1.401-0.211-2.519,0.426-3.247
		c0.611-0.697,1.549-0.911,2.208-0.814l3.76,0.697l0.096,0.018h0.523l2.653-2.863l0.022-0.028c0.454-0.526,1.836-2.127,0.427-4.171
		l-3.551-5.847c0.59-0.082,1.179-0.137,1.725-0.137h0.021c0.021,0.004,1.796-0.025,3.706,1.087c0.258,0.553,0.615,1.282,1.016,2.091
		c0.745,1.51,1.673,3.39,1.931,4.148c0.084,0.238,0.335,0.964-0.555,1.886l-6.806,7.181H124.753z M123.688,63.151
		c-0.716,0.822-1.413,2.252-0.96,4.546h-12.104c1.3-0.132,2.244-0.434,2.898-1.113c0.79-0.821,0.861-1.953,0.835-2.757
		c0.026-0.07,0.159-0.341,0.75-0.607l1.042-0.477l-0.626-0.961c-1.031-1.59-0.581-5.064-0.183-6.95h0.096
		c4.104,0,6.758-0.854,9.557-1.753c0.729-0.235,1.484-0.477,2.281-0.708l0.021-0.009c0.018-0.005,0.837-0.265,1.952-0.524
		l3.944,6.502l0.036,0.053c0.391,0.563,0.44,0.933-0.274,1.765l-1.978,2.134l-3.242-0.602l-0.03-0.003
		C126.241,61.459,124.663,62.035,123.688,63.151 M102.216,62.722c-0.843,1.209-0.944,2.881-0.311,4.976h-2.043V51.731
		c0.733-0.112,1.52-0.323,2.253-0.656c-0.041,0.696-0.138,1.245-0.269,1.981c-0.027,0.17-0.061,0.349-0.093,0.539l-0.195,1.152
		h1.172c1.75,0,3.053-0.272,4.06-0.791v6.667c0,0.167-0.134,0.306-0.295,0.306h-0.299C104.461,60.929,103.008,61.583,102.216,62.722
		 M97.879,65.965l-9.317-2.426l-9.319,2.426V49.296l9.319-2.418l9.317,2.418V65.965z M80.439,67.697l8.124-2.116l8.122,2.116H80.439
		z M83.69,43.156c0.388-0.596,1.278-1.108,2.392-0.916l0.845,0.146l0.265-0.811c0.073-0.219,0.167-0.379,0.299-0.503
		c0.236-0.224,0.592-0.331,1.04-0.316c1.192,0.039,2.684,0.866,3.895,2.166c0.441,0.473,0.833,1.022,1.179,1.575
		c0.069,0.116,0.144,0.244,0.215,0.353c0.1,0.154,0.18,0.281,0.196,0.311c0.046,0.077,0.644,0.976,0.601,1.035
		c0.411-0.576,0.818-1.151,1.229-1.725c0.013-0.016-0.005-0.071-0.039-0.144c-0.092-0.199-0.311-0.541-0.441-0.744
		c-0.03-0.048-0.063-0.1-0.093-0.147c-0.001-0.003-0.007-0.009-0.007-0.011c-0.013-0.02-0.069-0.106-0.141-0.219
		c-0.139-0.213-0.331-0.522-0.416-0.691l2.577-4.126c0.642,0.135,1.191,0.156,1.453,0.156h0.064c3.635,0,7.397-2.097,7.397-5.607
		v-0.085c-0.048-0.957-0.226-1.871-0.371-2.6c-0.095-0.487-0.182-0.941-0.182-1.168c0-0.386,0.541-0.813,1.314-0.813h1.176
		l-0.532-3.046c1.655-1.218,2.671-3.201,2.619-5.097c1.784,1.368,3.04,3.74,3.271,6.26c0.068,0.733-0.074,1.759-0.313,2.836
		l-0.125,0.45l0.019,0.007c-0.424,1.759-1.043,3.569-1.373,4.423l-0.303,0.793l0.738,0.423c1.328,0.749,2.145,1.298,2.145,3.046
		c0,2.004-1.805,3.539-3.548,3.864l-2.383,0.447l2.017,1.344c0.646,0.432,1.031,1.135,1.031,1.88c0,1.259-1.07,2.281-2.387,2.281
		h-0.761l-0.214,0.699c-0.737,2.408-1.541,3.585-4.124,3.837c0.118-0.731,0.201-1.435,0.201-2.433c0-0.233-0.021-0.889-0.03-1.101
		l-0.115-2.246l-1.579,1.604c-0.537,0.546-1.485,0.976-2.529,1.186v-1.961l-11.3-2.935l-4.021,1.046
		C83.646,44.982,83.466,43.503,83.69,43.156 M95.889,35.898c0.028-0.135,0.139-0.244,0.256-0.24l1.702,0.054
		c2.075-0.073,4.187-0.925,4.427-3.087c0-1.458-1.039-2.886-2.504-2.886c-0.784,0-1.666,0.544-2.657,1.199
		c-0.644,0.428-1.154,0.766-1.542,0.766c-0.258,0-0.471-0.174-0.471-0.318c0-0.023,0.007-0.048,0.013-0.073l1.086-1.455
		l-0.939-0.631c-0.201-0.131-0.512-0.377-0.546-0.562c-0.016-0.087,0.108-0.242,0.147-0.29c0.388-0.455,0.836-1.008,1.288-1.688
		c0.277-0.389,0.438-0.603,0.903-0.603c0.459,0,0.834,0.37,0.834,0.82c0,0.299,0.329,0.536,0.738,0.536
		c0.409,0,0.59-0.288,0.843-0.536c0,0,0.968-0.891,0.455-1.309c-0.585-0.482-2.932,0.5-2.28-1.657l0.164-0.308
		c0.249-0.333,1.375-1.163,3.692-1.163c0.44,0,0.903,0.032,1.38,0.092l0.345,0.042l4.924-3.034c0.041,0.102,0.06,0.176,0.06,0.176
		l0.005,0.028c0.254,1.49-0.685,3.265-2.188,4.125l-0.6,0.343l0.388,2.223c-1.264,0.388-2.145,1.399-2.145,2.62
		c0,0.419,0.098,0.916,0.221,1.547c0.139,0.697,0.294,1.489,0.331,2.292c0,2.312-3.187,3.837-5.885,3.752l-0.069-0.002
		c-0.112-0.005-1.828-0.141-2.25-0.473C95.932,36.139,95.868,36.003,95.889,35.898 M99.969,20.48
		c0.311-0.396,0.816-0.835,1.419-1.236c0.473-0.313,1.092-0.59,1.692-0.765c0.952-0.274,2.051-0.292,3.184-0.073l-3.491,2.152
		c-0.436-0.044-0.862-0.066-1.274-0.066c-0.593,0-1.137,0.046-1.636,0.128C99.899,20.573,99.935,20.524,99.969,20.48 M153.18,19.972
		h13.167c-1.238,1.741-2.991,2.559-5.423,2.559h-9.72C151.98,21.853,152.639,20.998,153.18,19.972 M152.518,27.417h-9.719
		c0.859-0.754,1.576-1.729,2.146-2.909h13.226C156.927,26.486,155.104,27.417,152.518,27.417 M144.782,32.198h-9.719
		c0.834-0.733,1.531-1.672,2.093-2.803h13.204C149.121,31.296,147.321,32.198,144.782,32.198 M147.018,39.613
		c3.078,0.507,5.602,1.893,7.492,4.117c0.403,0.477,0.797,0.983,1.181,1.531c-5.181-0.68-6.983-1.434-9.881-5.83
		C146.197,39.482,146.594,39.541,147.018,39.613 M167.686,60.929c0.19,0.306,0.349,0.594,0.509,0.871
		c0.19,0.342,0.382,0.673,0.603,1.021c-1.499-0.093-2.632-0.925-3.685-2.493C166.083,59.986,167.255,60.229,167.686,60.929
		 M155.368,67.697l2.021-0.769l0.032-0.007c2.865-1.188,3.272-1.932,3.141-3.834v-7.711c2.18,5.538,4.243,9.436,8.47,9.436
		c0.578,0,1.193-0.071,1.854-0.221l1.648-0.373l-1.137-1.256c-0.724-0.796-1.077-1.419-1.479-2.134
		c-0.167-0.295-0.338-0.601-0.546-0.938c-0.992-1.604-3.343-2.148-5.251-1.295c-0.866-1.718-1.736-3.955-2.785-6.719l-0.226-0.528
		c-0.182-0.411-0.363-0.827-0.548-1.243v-0.071h-0.028c-0.653-1.458-1.343-2.924-2.175-4.295c-0.753-1.247-1.518-2.322-2.337-3.288
		c-2.211-2.589-5.126-4.2-8.679-4.789c-2.459-0.405-4.198-0.489-6.4-0.598c-0.459-0.023-0.932-0.046-1.442-0.075
		c-0.994-0.055-3.057-0.222-5.047-0.389c-1.346-0.108-2.719-0.221-3.804-0.301c0.075-0.304,0.114-0.621,0.114-0.948
		c0-0.439-0.036-0.831-0.118-1.181h14.137c3.642,0,6.275-1.611,7.85-4.784c3.62-0.032,6.242-1.673,7.787-4.879h0.505
		c3.769,0,6.465-1.72,8.014-5.115l0.637-1.398h-47.888c-3.146,0-5.826,2.054-6.829,5.227l-0.028,0.112
		c-0.816-2.271-2.309-4.199-4.217-5.332c-2.654-1.581-5.678-2.113-8.084-1.419c-0.795,0.229-1.586,0.586-2.231,1.014
		c-0.552,0.363-1.327,0.949-1.889,1.668c-0.611,0.784-1.202,1.735-1.636,2.623c-0.276,0.226-0.487,0.459-0.637,0.683l-0.576,1.078
		l-0.028,0.062c-0.688,1.547-1.522,2.62-2.17,3.379c-0.647,0.752-0.679,1.465-0.592,1.935c0.094,0.511,0.368,0.927,0.662,1.24
		l-0.018,0.032c-0.19,0.331-0.29,0.706-0.29,1.088c0,1.265,1.097,2.221,2.449,2.221c0.987,0,1.788-0.46,2.639-1.022
		c0.347-0.229,1.259-0.836,1.56-0.87c0.378,0,0.722,0.345,0.722,0.724c0,1.035-1.334,1.591-2.289,1.661l-1.948,0.208
		c-1.397,0.132-2.063,0.875-2.063,1.537c0,0.667,0.32,1.041,0.544,1.265l0.144,0.147l0.493,0.438l-2.063,3.324
		c-1.472-1.362-3.19-2.188-4.716-2.235c-0.985-0.032-1.838,0.265-2.466,0.857c-0.183,0.173-0.343,0.372-0.475,0.587h-0.037
		c-1.629,0-2.941,0.873-3.585,1.852c-0.697,1.072-0.447,2.925,0.439,4.341l-5.207,1.352v24.886h95.489v-4.958H155.368z"/>
	<polyline fill="#A93439" points="95.814,51.855 89.59,50.241 89.59,52.279 95.814,53.897 95.814,51.855 	"/>
	<polyline fill="#A93439" points="81.311,53.897 87.535,52.279 87.535,50.239 81.311,51.855 81.311,53.897 	"/>
	<polyline fill="#A93439" points="81.311,57.998 87.535,56.384 87.535,54.342 81.311,55.956 81.311,57.998 	"/>
	<polyline fill="#A93439" points="95.814,55.956 89.59,54.342 89.59,56.384 95.814,57.998 95.814,55.956 	"/>
	<polyline fill="#A93439" points="95.814,60.061 89.59,58.442 89.59,60.484 95.814,62.103 95.814,60.061 	"/>
	<polyline fill="#A93439" points="81.311,62.103 87.535,60.484 87.535,58.442 81.311,60.061 81.311,62.103 	"/>
</g>
</svg>
