<?xml version="1.0" encoding="utf-8"?>
<!-- Generator: Adobe Illustrator 16.0.0, SVG Export Plug-In . SVG Version: 6.00 Build 0)  -->
<!DOCTYPE svg PUBLIC "-//W3C//DTD SVG 1.1//EN" "http://www.w3.org/Graphics/SVG/1.1/DTD/svg11.dtd">
<svg version="1.1" id="Capa_1" xmlns="http://www.w3.org/2000/svg" xmlns:xlink="http://www.w3.org/1999/xlink" x="0px" y="0px"
	 width="250px" height="110px" viewBox="0 0 250 110" enable-background="new 0 0 250 110" xml:space="preserve">
<g>
	<path fill="#82BC00" d="M91.059,53.29c6.901-0.313,13.996-0.496,21.286-0.536c0,0,0.372,0.096,0.372,0.41v28.078H90.614V53.72
		C90.614,53.353,91.059,53.29,91.059,53.29 M15.36,64.002c6.597-1.753,13.62-3.323,21.039-4.691
		c0.115-0.028,0.345,0.076,0.345,0.344v9.66h6.103c9.571,0,15.5-4.098,16.027-13c0-0.272,0.364-0.444,0.364-0.444
		c6.764-0.805,13.78-1.462,21.045-1.958c0,0,0.362,0.076,0.362,0.377c0.012,0.382,0.018,0.762,0.018,1.146
		c0,7.708-2.545,15.193-7.121,18.825c-6.179,4.942-11.998,6.981-28.204,6.981H15.002V64.516
		C15.002,64.225,15.241,64.033,15.36,64.002 M174.303,56.363c8.205,1.08,16.009,2.383,23.374,3.893c0,0,0.373,0.156,0.517,0.523
		l0.826,2.16l0.722-1.83c0.115-0.313,0.479-0.317,0.479-0.317c6.428,1.382,12.496,2.921,18.209,4.609c0,0,0.293,0.198,0.173,0.476
		l-6.789,15.364h-27.042l-10.829-24.513C173.84,56.467,174.303,56.363,174.303,56.363 M114.694,52.748
		c8.646-0.01,17.017,0.192,25.104,0.588c0,0,0.154,0.215,0.056,0.336l22.687,27.569h-27.767l-20.717-28.078
		C114.317,52.819,114.694,52.748,114.694,52.748"/>
	<path fill="#004D43" d="M15,64.516V28.759h26.556c15.486,0,25.519,1.379,32.712,8.646c3.601,3.668,6.142,9.562,6.375,16.887
		c-7.522,0.51-14.787,1.191-21.767,2.022c0.022-0.422,0.038-0.865,0.038-1.32c0-9.814-6.03-14.317-16.068-14.317h-6.101v18.971
		C29.05,61.073,21.795,62.699,15,64.516 M114.055,53.164l18.904-24.405h27.26l-20.365,24.913
		C131.6,53.342,122.971,53.143,114.055,53.164 M90.621,53.72V28.759h22.096v24.405C105.139,53.196,97.764,53.381,90.621,53.72
		 M199.741,61.109l12.723-32.351H235l-16.398,37.113C212.703,64.123,206.409,62.527,199.741,61.109 M173.942,56.729l-12.36-27.97
		h24.354l12.258,32.021C190.578,59.204,182.485,57.843,173.942,56.729"/>
</g>
</svg>
