<?xml version="1.0" encoding="utf-8"?>
<!-- Generator: Adobe Illustrator 27.1.0, SVG Export Plug-In . SVG Version: 6.00 Build 0)  -->
<svg version="1.1" id="Capa_1" xmlns="http://www.w3.org/2000/svg" xmlns:xlink="http://www.w3.org/1999/xlink" x="0px" y="0px"
	 viewBox="0 0 250 110" style="enable-background:new 0 0 250 110;" xml:space="preserve">
<style type="text/css">
	.st0{fill-rule:evenodd;clip-rule:evenodd;fill:#C01B1D;}
	.st1{fill:#141427;}
</style>
<g>
	<path class="st0" d="M44.7,61.4c0.9-2.7,0.5-5.3-0.8-7.8c-1.2-2.3-2.5-4.5-3.7-6.8c-1.8-3.5-1.8-7,0.3-10.5c0.8-1.4,2-2.5,3.6-3.3
		c-0.9,1.9-1.6,3.8-1.2,5.9c-0.1,1.9,0.9,3.4,2.1,4.8c1,1.1,2.1,2.2,3.2,3.3c3.1,3.2,3.6,5.9,1.8,10c-0.1,0.3-0.4,0.5,0,0.8
		c2.4-1.4,3.5-4.3,2.9-7.5c-0.4-2.3-1.8-4.2-2.9-6.2c-1.7-3.1-1.7-6.2,0.3-9.2c0.6-1,1.5-1.7,2.8-2.4c-0.9,2.5-1.9,4.7-1.3,7.1
		c0.5,2.5,2.2,4,4.4,5.1c1.5,1.2,3.3,1.7,4.9,2.7c1.2,0.7,2.4,1.5,3.4,2.4c2.6,3.7,2.3,6.1-0.8,9.3c-6.1,6.1-12.2,12.2-18.3,18.4
		c-0.7,0.3-0.9-0.3-1.3-0.6c-7.1-7.1-14.3-14.3-21.4-21.4c-0.4-0.4-1.1-0.7-0.3-1.5c3.8-3.7,7.4-7.6,11.3-11.1l0,0
		c0,1.6-0.6,3.1-0.2,4.7c0,1.7,0.8,3.1,1.9,4.4c1.1,1.2,2.2,2.4,3.4,3.5c2.9,2.9,3.6,6.2,2.1,10c-0.2,0.5-0.4,1.1-0.6,1.6
		c-0.2,0.1-0.3,0.3-0.2,0.5c0.2,0.2,0.3-0.1,0.4-0.3C42.2,65.5,44.1,63.9,44.7,61.4z M49.5,58.3c0.1-0.1,0.2-0.2,0.3-0.2
		c-0.1-0.1-0.1-0.2-0.2-0.2c-0.1,0-0.3,0.1-0.4,0.2C49.3,58.1,49.4,58.2,49.5,58.3z"/>
	<g>
		<path class="st1" d="M79.3,68.7v1.7c-1.1-0.5-2.1-0.8-2.7-0.8c-0.4,0-0.7,0.1-0.9,0.2s-0.3,0.3-0.3,0.5c0,0.2,0.1,0.3,0.2,0.5
			c0.2,0.1,0.6,0.3,1.2,0.6c0.6,0.2,1.2,0.5,1.5,0.7c0.4,0.2,0.7,0.5,1,0.9c0.3,0.4,0.4,0.8,0.4,1.4c0,0.8-0.3,1.4-0.9,1.9
			s-1.4,0.7-2.4,0.7c-1.1,0-2.1-0.3-3.1-0.8v-1.9c0.6,0.4,1.1,0.7,1.5,0.8c0.4,0.2,0.9,0.3,1.4,0.3c0.8,0,1.3-0.3,1.3-0.8
			c0-0.2-0.1-0.4-0.3-0.5c-0.2-0.2-0.6-0.4-1.2-0.6c-0.6-0.2-1.2-0.4-1.5-0.6c-0.4-0.2-0.7-0.5-1-0.8c-0.3-0.4-0.4-0.8-0.4-1.4
			c0-0.7,0.3-1.3,0.9-1.8c0.6-0.5,1.4-0.7,2.4-0.7C77.3,68,78.3,68.2,79.3,68.7z"/>
		<path class="st1" d="M90.2,75.2v1.6h-6.4v-8.7h6.3v1.6H86v1.8h3.9v1.6H86v2.1H90.2z"/>
		<path class="st1" d="M102.8,68.7v1.9c-1.1-0.5-2.2-0.8-3.2-0.8c-1,0-1.8,0.3-2.3,0.8c-0.5,0.5-0.8,1.2-0.8,2
			c0,0.8,0.3,1.4,0.8,1.8s1.3,0.7,2.2,0.7c0.5,0,1-0.1,1.4-0.3v-1h-1.3v-1.6h3.4v3.5c-0.3,0.3-0.9,0.6-1.6,0.8
			c-0.7,0.2-1.4,0.3-2.1,0.3c-1.5,0-2.7-0.4-3.7-1.2c-1-0.8-1.5-1.9-1.5-3.2c0-1.3,0.5-2.4,1.5-3.2c1-0.8,2.2-1.2,3.8-1.2
			C100.6,68,101.8,68.3,102.8,68.7z"/>
		<path class="st1" d="M113.9,68.1h2.2v4.9c0,1.3-0.4,2.2-1.1,2.9c-0.7,0.7-1.8,1-3.2,1c-1.4,0-2.4-0.3-3.2-1
			c-0.8-0.7-1.1-1.6-1.1-2.9v-4.9h2.2v5c0,0.6,0.2,1.1,0.6,1.5s0.9,0.5,1.6,0.5c0.7,0,1.2-0.2,1.6-0.6c0.4-0.4,0.6-0.9,0.6-1.6V68.1
			z"/>
		<path class="st1" d="M120.6,68.1h3.9c0.8,0,1.5,0.2,2,0.7c0.5,0.5,0.8,1.1,0.8,1.8c0,1-0.5,1.7-1.5,2.1c0.4,0.2,0.8,0.7,1.2,1.6
			c0.4,0.9,0.8,1.7,1.1,2.5h-2.4c-0.1-0.3-0.4-0.8-0.7-1.6c-0.4-0.8-0.7-1.3-0.9-1.5c-0.2-0.2-0.5-0.3-0.8-0.3h-0.6v3.5h-2.2V68.1z
			 M122.8,69.7v2h1.1c0.4,0,0.7-0.1,0.9-0.3s0.3-0.4,0.3-0.7c0-0.7-0.4-1-1.2-1H122.8z"/>
		<path class="st1" d="M136.3,68c1.5,0,2.7,0.4,3.6,1.3c0.9,0.9,1.4,1.9,1.4,3.1c0,1.2-0.5,2.2-1.4,3.1c-0.9,0.9-2.1,1.3-3.6,1.3
			c-1.5,0-2.7-0.4-3.6-1.3c-0.9-0.9-1.4-1.9-1.4-3.1c0-1.2,0.5-2.2,1.4-3.1S134.8,68,136.3,68z M136.3,75.1c0.8,0,1.5-0.2,2-0.7
			c0.5-0.5,0.8-1.1,0.8-1.9c0-0.8-0.3-1.4-0.8-1.9c-0.5-0.5-1.2-0.7-2-0.7c-0.8,0-1.5,0.2-2,0.7c-0.5,0.5-0.8,1.1-0.8,1.9
			c0,0.8,0.3,1.4,0.8,1.9C134.8,74.9,135.5,75.1,136.3,75.1z"/>
		<path class="st1" d="M151.3,68.7v1.7c-1.1-0.5-2.1-0.8-2.7-0.8c-0.4,0-0.7,0.1-0.9,0.2c-0.2,0.1-0.3,0.3-0.3,0.5
			c0,0.2,0.1,0.3,0.2,0.5c0.2,0.1,0.6,0.3,1.2,0.6c0.6,0.2,1.2,0.5,1.5,0.7c0.4,0.2,0.7,0.5,1,0.9c0.3,0.4,0.4,0.8,0.4,1.4
			c0,0.8-0.3,1.4-0.9,1.9c-0.6,0.5-1.4,0.7-2.4,0.7c-1.1,0-2.1-0.3-3.1-0.8v-1.9c0.6,0.4,1.1,0.7,1.5,0.8c0.4,0.2,0.9,0.3,1.4,0.3
			c0.8,0,1.3-0.3,1.3-0.8c0-0.2-0.1-0.4-0.3-0.5s-0.6-0.4-1.2-0.6c-0.6-0.2-1.2-0.4-1.5-0.6s-0.7-0.5-1-0.8
			c-0.3-0.4-0.4-0.8-0.4-1.4c0-0.7,0.3-1.3,0.9-1.8s1.4-0.7,2.4-0.7C149.3,68,150.3,68.2,151.3,68.7z"/>
	</g>
	<g>
		<polygon class="st1" points="73.1,62 73.1,32.9 93.9,32.9 93.9,37.3 79.5,37.3 79.5,44.8 93.3,44.8 93.3,49.2 79.5,49.2 
			79.5,57.6 94.2,57.6 94.2,62 		"/>
		<path class="st1" d="M104.3,62.4c-2.1,0-3.7-0.6-5-1.9c-1.3-1.3-1.9-3-1.9-5.3V42.7h5.3v12c0,3.7,2,4.4,3.8,4.4
			c1.4,0,2.5-0.5,3.5-1.6c1-1.1,1.4-1.9,1.4-2.5V42.7h5.4V62h-5.3v-3.9l-1,1.1C108.6,61.4,106.6,62.4,104.3,62.4z"/>
		<path class="st1" d="M121.5,62V42.7h5.3v5.9l1-0.1l0.1-0.3c1.8-3.9,3.8-5.9,6-5.9c1,0,2.2,0.5,3.6,1.5l-1.4,4.6
			c-1.4-0.8-2.5-1.2-3.5-1.2c-1.7,0-3.1,1-4.2,3c-1.5,2.7-1.6,3.2-1.6,3.5V62H121.5z"/>
		<path class="st1" d="M148.3,62.4c-3.2,0-5.9-0.9-7.9-2.8c-2-1.8-3.1-4.3-3.1-7.3c0-3.1,1-5.4,3.1-7.3c2.1-1.8,4.7-2.8,7.9-2.8
			c3,0,5.7,0.9,7.8,2.7c2.1,1.8,3.1,4.2,3.1,7.4c0,3.2-1,5.6-3.2,7.4C153.9,61.5,151.3,62.4,148.3,62.4z M148.3,45
			c-1.7,0-3,0.7-3.9,2c-0.9,1.3-1.3,3.1-1.3,5.3c0,4.9,1.8,7.4,5.2,7.4c3.4,0,5.2-2.5,5.2-7.5C153.5,47.4,151.7,45,148.3,45z"/>
		<path class="st1" d="M162.7,72.2V42.7h5.3v2.4l0.9-0.8c1.6-1.4,3.4-2.1,5.5-2.1c2.5,0,4.6,0.9,6.3,2.8c1.7,1.9,2.6,4.2,2.6,7
			c0,3.1-0.9,5.6-2.6,7.5c-1.7,1.8-4,2.8-6.9,2.8c-1.8,0-3.4-0.4-5-1.3l-0.8-0.5v11.6H162.7z M172.6,45.7c-1.4,0-2.9,0.6-4.3,1.8
			l-0.2,0.2l0,0.3v9.7l0.2,0.2c1.3,1,2.7,1.4,4,1.4c1.7,0,3.1-0.6,4.1-1.9c1-1.2,1.5-2.9,1.5-4.9c0-2.1-0.5-3.7-1.4-4.9
			C175.6,46.3,174.3,45.7,172.6,45.7z"/>
		<path class="st1" d="M195.9,62.4c-3.4,0-6.2-0.9-8.2-2.7c-2-1.8-3-4.2-3-7.2c0-2.9,1-5.4,2.9-7.3c1.9-1.9,4.4-2.8,7.3-2.8
			c3,0,5.4,1,7.3,3c1.8,1.9,2.7,4.4,2.7,7.5h-14.7l0,0.6c0.1,2,0.9,3.6,2.2,4.7c1.3,1.1,3,1.6,5.1,1.6c2.2,0,4.6-0.8,7-2.4V60
			C202.1,61.6,199.2,62.4,195.9,62.4z M195.2,45c-2,0-4.5,0.9-5,4.9l-0.1,0.6l0.6,0h9.5l-0.1-0.6C199.7,45.9,197.3,45,195.2,45z"/>
		<path class="st1" d="M222.5,62.4c-2.3,0-2.9-1.1-3.1-1.9l-0.2-0.8l-0.6,0.4c-2.2,1.5-4.3,2.2-6.4,2.2c-1.5,0-2.7-0.4-3.7-1.4
			c-1-0.9-1.5-1.9-1.5-3.1c0-1.6,0.5-2.9,1.5-3.9c0.7-0.7,3.1-2,10.2-4.1l0.2,0l0.2-0.3l0-0.2c0.1-1.2-0.2-2.2-0.8-2.9
			c-0.7-0.7-1.8-1.1-3.2-1.1c-2.5,0-4.8,0.9-7,2.7v-3.7c2.5-1.5,5.3-2.2,8.3-2.2c5.4,0,8.1,1.9,8.1,5.7v9.3c0,1.8,1.1,2,1.6,2
			c0.5,0,1.1-0.2,1.9-0.7v2.2C226.1,61.8,224.2,62.4,222.5,62.4z M218.5,52.1c-2.2,0.8-3.7,1.5-4.6,2.1c-0.9,0.7-1.4,1.6-1.4,2.7
			c0,0.7,0.3,1.4,0.8,1.9c0.5,0.5,1.1,0.8,1.9,0.8c1.3,0,2.7-0.6,3.9-1.7l0.2-0.2l0-0.2v-5.7L218.5,52.1z"/>
	</g>
</g>
</svg>
