<?xml version="1.0" encoding="utf-8"?>
<!-- Generator: Adobe Illustrator 16.0.0, SVG Export Plug-In . SVG Version: 6.00 Build 0)  -->
<!DOCTYPE svg PUBLIC "-//W3C//DTD SVG 1.1//EN" "http://www.w3.org/Graphics/SVG/1.1/DTD/svg11.dtd">
<svg version="1.1" id="Capa_1" xmlns="http://www.w3.org/2000/svg" xmlns:xlink="http://www.w3.org/1999/xlink" x="0px" y="0px"
	 width="250px" height="110px" viewBox="0 0 250 110" enable-background="new 0 0 250 110" xml:space="preserve">
<g>
	<path fill="#231F20" d="M22.781,41.518v13.006h0.088c1.797-2.393,3.979-3.507,7.016-3.507c5.556,0,8.254,3.679,8.254,9.239v13.434
		h-7.783v-11.25c0-2.566-0.387-5.217-3.507-5.217c-3.08,0-4.067,2.65-4.067,5.217v11.25H15V41.518H22.781z"/>
	<path fill="#231F20" d="M64.529,64.023H48.146c0,3.16,1.67,4.873,4.879,4.873c1.67,0,2.865-0.557,3.722-2.012h7.485
		c-1.243,5.178-6.159,7.531-11.164,7.531c-7.271,0-12.705-4.105-12.705-11.676c0-7.317,5.002-11.723,12.149-11.723
		c7.614,0,12.018,4.704,12.018,12.192V64.023z M57.302,59.531c-0.387-2.098-2.31-3.469-4.406-3.469
		c-2.269,0-4.148,1.199-4.623,3.469H57.302z"/>
	<rect x="66.798" y="41.515" fill="#231F20" width="7.781" height="32.17"/>
	<polygon fill="#231F20" points="89.349,62.994 94.568,51.743 103.294,51.743 91.827,73.686 86.868,73.686 75.362,51.743 
		84.086,51.743 	"/>
	<path fill="#231F20" d="M125.539,64.023h-16.384c0,3.16,1.67,4.873,4.879,4.873c1.67,0,2.864-0.557,3.721-2.012h7.483
		c-1.238,5.178-6.159,7.531-11.161,7.531c-7.269,0-12.706-4.105-12.706-11.676c0-7.317,5.005-11.723,12.149-11.723
		c7.612,0,12.019,4.704,12.019,12.192V64.023z M118.309,59.531c-0.382-2.098-2.307-3.469-4.403-3.469
		c-2.269,0-4.151,1.199-4.621,3.469H118.309z"/>
	<polygon fill="#231F20" points="137.021,73.686 129.235,73.686 129.235,58.162 126.711,58.162 126.711,51.743 129.235,51.743 
		129.235,45.159 137.021,45.159 137.021,51.743 141.428,51.743 141.428,58.162 137.021,58.162 	"/>
	<path fill="#231F20" d="M151.288,44.815c0,2.395-1.966,4.363-4.363,4.363c-2.393,0-4.363-1.969-4.363-4.363
		c0-2.396,1.971-4.363,4.363-4.363C149.322,40.452,151.288,42.419,151.288,44.815 M150.82,73.686h-7.789V51.743h7.789V73.686z"/>
	<path fill="#231F20" d="M178.661,73.686h-7.786v-2.438h-0.081c-1.372,2.186-4.063,3.168-6.629,3.168
		c-6.506,0-11.083-5.432-11.083-11.725c0-6.287,4.494-11.674,10.997-11.674c2.521,0,5.174,0.942,6.796,2.865v-2.14h7.786V73.686z
		 M161.128,62.74c0,2.779,1.834,4.918,5.002,4.918c3.163,0,5.005-2.139,5.005-4.918c0-2.697-1.842-4.965-5.005-4.965
		C162.962,57.775,161.128,60.043,161.128,62.74"/>
	<polygon fill="#4D3566" points="206.396,64.465 196.406,67.029 204.17,49.092 214.197,46.702 	"/>
	<polygon fill="#694D88" points="203.672,31.422 213.737,29.222 217.79,38.517 207.753,40.826 	"/>
	<polygon fill="#8363AA" points="188.991,65.762 203.672,31.422 207.753,40.826 196.409,67.029 	"/>
	<polygon fill="#007174" points="196.409,67.029 206.396,64.465 223.133,67.26 213.174,69.902 	"/>
	<polygon fill="#00B0B5" points="217.27,79.375 185.604,73.689 188.991,65.758 213.174,69.902 	"/>
	<polygon fill="#BA141A" points="207.753,40.826 217.79,38.517 235,77.986 225.089,80.777 	"/>
	<polygon fill="#ED1C24" points="204.17,49.092 207.753,40.826 225.086,80.777 217.271,79.375 	"/>
</g>
</svg>
