<?xml version="1.0" encoding="utf-8"?>
<!-- Generator: Adobe Illustrator 16.0.0, SVG Export Plug-In . SVG Version: 6.00 Build 0)  -->
<!DOCTYPE svg PUBLIC "-//W3C//DTD SVG 1.1//EN" "http://www.w3.org/Graphics/SVG/1.1/DTD/svg11.dtd">
<svg version="1.1" id="Capa_1" xmlns="http://www.w3.org/2000/svg" xmlns:xlink="http://www.w3.org/1999/xlink" x="0px" y="0px"
	 width="250px" height="110px" viewBox="0 0 250 110" enable-background="new 0 0 250 110" xml:space="preserve">
<g>
	<g>
		<path fill="#009EDA" d="M28.641,82.738v-1.772c-1.909,0-2.863-1.5-2.863-3.408c0-0.887,0.137-2.589,0.547-3.953l2.18-6.953H47.11
			l2.793,7.361c0.545,1.563,0.955,2.93,0.955,4.023c0,1.836-0.955,2.93-2.591,2.93v1.772c2.727,0,5.316-0.343,8.039-0.343
			c2.66,0,5.317,0.343,7.977,0.343v-1.772c-2.862-0.343-3.545-2.93-6.34-9.947L40.567,26.447h-0.954L22.712,69.11
			c-1.501,3.816-4.495,11.241-7.7,11.855v1.772c2.319,0,4.499-0.343,6.814-0.343C24.146,82.396,26.324,82.738,28.641,82.738z
			 M37.705,41.981l7.972,20.854H30.004L37.705,41.981z"/>
		<path fill="#009EDA" d="M79.272,83.553c2.726,0,4.227-0.408,5.523-1.23l4.563-4.012c1.298,2.384,3.472,4.355,5.995,5.242
			c1.501-1.908,4.432-4.023,7.229-5.859l-1.161-1.159c-0.548,0.344-1.09,0.615-2.247,0.615c-1.842,0-2.457-1.573-2.457-4.438V52.956
			c0-11.453,0.341-20.307,0.341-26.509h-1.564c-1.978,2.251-6.747,4.43-10.63,5.453v1.563c2.042,0.344,4.02,1.434,4.02,5.865v11.724
			c-2.727-1.301-5.386-1.981-8.108-1.981c-10.155,0-17.583,6.341-17.583,17.38C63.256,76.056,69.597,83.553,79.272,83.553z
			 M80.636,52.276c6.268,0,8.452,3.135,8.452,10.702v13.014c-2.049,1.972-4.091,2.786-6.407,2.786
			c-6.882,0-10.833-7.768-10.833-14.37C71.848,59.022,74.365,52.276,80.636,52.276z"/>
		<path fill="#009EDA" d="M120.91,83.553c3.338,0,5.928-0.615,7.497-1.23l4.292-6.267l-0.819-0.95
			c-2.386,1.772-5.381,2.523-8.314,2.523c-8.175,0-13.764-7.16-13.218-14.993h23.034c-0.073-8.382-6.403-13.565-14.587-13.565
			c-10.762,0-16.147,9.749-16.147,17.174C102.647,73.804,108.033,83.553,120.91,83.553z M117.502,51.793
			c5.181,0,7.361,3.003,7.361,7.704h-14.244C110.416,55.474,113.21,51.793,117.502,51.793z"/>
		<path fill="#009EDA" d="M153.076,75.442c0,3.065-2.591,4.909-5.521,4.909c-3.548,0-6.679-2.723-7.428-6.475h-2.932l0.479,7.361
			c2.379,1.5,6.402,2.314,9.198,2.314c6.81,0,12.605-3.065,12.605-10.626c0-10.839-15.744-8.039-15.744-15.607
			c0-3.274,2.32-4.978,5.457-4.978c4.292,0,6.471,1.975,7.357,5.998h2.523l0.343-7.154c-3.342-1.021-6.683-2.042-10.088-2.042
			c-6.478,0-12.538,3.198-12.538,10.49C136.722,70.875,153.076,69.646,153.076,75.442z"/>
		<path fill="#009EDA" d="M165.887,38.238c0.203,2.998,0.614,8.924,0.614,13.555v25.691c0,1.772-0.614,3.21-3.134,3.545v1.573
			c2.313,0,4.494-0.207,6.811-0.207c2.384,0,4.773,0.207,7.156,0.207v-1.573c-2.454-0.406-3.069-1.835-3.069-4.495V45.803
			c0-7.293,0.205-15.062,0.34-19.355h-1.633c-2.046,2.251-8.317,4.43-11.109,4.838v1.843
			C164.39,33.128,165.75,35.036,165.887,38.238z"/>
		<path fill="#009EDA" d="M189.603,83.553c3.476,0,5.995-1.908,8.718-3.88c0.958,1.972,3.341,3.472,6.342,3.88l5.928-4.767
			l-1.161-1.157c-0.538,0.136-1.226,0.335-1.632,0.335c-1.772,0-2.388-1.021-2.388-4.702v-2.793
			c0.067-4.495,0.339-8.655,0.339-11.521c0-7.899-5.995-9.804-13.08-9.804c-3.752,0-6.882,0.472-10.224,1.43v7.561h1.908
			c1.976-2.928,3.953-4.224,7.833-4.224c5.384,0,5.727,4.773,5.727,9.062c-1.088,0-2.45-0.203-3.748-0.203
			c-7.221,0-15.195,3.269-15.195,11.65C178.903,80.215,184.217,83.553,189.603,83.553z M194.028,65.358
			c1.434,0,2.93,0.211,3.816,0.406l0.276,11.657c-1.297,0.814-2.866,1.364-5.315,1.364c-3.339,0-6.206-2.794-6.206-6.411
			C186.6,67.267,190.417,65.358,194.028,65.358z"/>
		<path fill="#009EDA" d="M228.577,75.442c0,3.065-2.59,4.909-5.516,4.909c-3.545,0-6.68-2.723-7.429-6.475h-2.932l0.479,7.361
			c2.384,1.5,6.407,2.314,9.202,2.314c6.81,0,12.605-3.065,12.605-10.626c0-10.839-15.744-8.039-15.744-15.607
			c0-3.274,2.317-4.978,5.453-4.978c4.292,0,6.475,1.975,7.361,5.998h2.52l0.339-7.154c-3.337-1.021-6.675-2.042-10.087-2.042
			c-6.471,0-12.535,3.198-12.535,10.49C212.295,70.875,228.577,69.646,228.577,75.442z"/>
	</g>
</g>
</svg>
