<?xml version="1.0" encoding="utf-8"?>
<!-- Generator: Adobe Illustrator 27.1.0, SVG Export Plug-In . SVG Version: 6.00 Build 0)  -->
<svg version="1.1" id="Capa_1" xmlns="http://www.w3.org/2000/svg" xmlns:xlink="http://www.w3.org/1999/xlink" x="0px" y="0px"
	 viewBox="0 0 250 110" style="enable-background:new 0 0 250 110;" xml:space="preserve">
<style type="text/css">
	.st0{fill:#007167;}
	.st1{fill:#EC7700;}
	.st2{fill:#1D1D1B;}
</style>
<g>
	<g>
		<path class="st0" d="M127.4,29.5c0-8.1-4.9-11.3-12.9-11.3c-4.1,0-7.6,0.6-11.4,1.7v7.6c3.7-1.7,7.2-2.4,10.8-2.4
			c3.5,0,5.4,1.7,5.4,4.5v1.3c-13,0.4-18.6,6-18.6,12.8c0,6.7,4.3,10.7,12.8,10.7c5,0,8.2-1,14.1-1c-0.2-1.8-0.4-5-0.4-7.9
			C127.2,40.1,127.4,35.2,127.4,29.5z M118.9,45.8c-0.3,1-1.7,1.8-4.6,1.8c-3.2,0-5.2-1.8-5.2-4.5c0-3.9,3.5-6,10.2-6.2
			C119.2,41.4,119.1,44.7,118.9,45.8z M140.6,28.1c0-1.8,1.8-2.9,4.6-2.9c2.4,0,4.8,0.4,8.3,1.8v-7.7c-2.9-0.8-5.2-1-8-1
			c-8.3,0-13.3,4.1-13.3,10.8c0,10.1,14.5,9.2,14.5,15c0,2.3-2,3.8-5.9,3.8c-2.4,0-5.7-0.4-8.5-1.4v7.2c2.9,0.9,6,1.2,9,1.2
			c9.6,0,13.7-5.5,13.7-11.3C155,32.8,140.6,33.4,140.6,28.1z M175,18.2c-9.7,0-16.7,6.9-16.7,18c0,12.9,7.4,18.6,17.8,18.6
			c2.4,0,6-0.3,9-1.3v-7.2c-2.8,1.3-6,1.5-8.6,1.5c-5.7,0-9.5-3.6-9.5-9.3v-1.1h20.7c0.3-2.1,0.4-3.6,0.4-4.9
			C188.1,24.4,184.1,18.2,175,18.2z M178.1,31h-10.3c0.6-3.5,2.9-6.1,6.8-6.1c3.6,0,5.2,1.9,5.2,4.6C179.7,30.4,179.2,31,178.1,31z
			 M72.1,36.5c0,12.2,7.1,18.3,17.7,18.3c2,0,3.9-0.2,6.1-0.7v-7.1c-1.8,0.3-3.4,0.5-5.7,0.5c-5.6,0-9.1-3.2-9.1-11.1
			c0-8,3.5-10.9,9-10.9c2.4,0,4,0.2,5.9,0.8v-7.5c-1.9-0.4-3.8-0.6-6.1-0.6C78.5,18.3,72.1,25.3,72.1,36.5z M209,18.1
			c-7.6,0-8.5,1.7-15.9,1.7V54h8.2V28.5c0-1.9,2.1-3.1,5.7-3.1c0.3,0,0.7,0,1,0c1.7,0.1,4.3,0.5,6.4,1.1v-7.6
			C212.7,18.3,210.9,18.1,209,18.1z"/>
		<path class="st1" d="M56.6,51.9c3.3,0,9.9,0.7,12.8,1.9c-9.1-10-6.8-27.4,0-36.6c-19.5,5.9-33.8,20.8-33.8,42.3c0,0.5,0,0.9,0,1.4
			C39.7,53.6,47.5,51.9,56.6,51.9z"/>
	</g>
	<g>
		<g>
			<g>
				<path class="st2" d="M45.1,76.7h9.2c0,0.9,0,1.8-0.1,2.6c-0.1,0.8-0.2,1.5-0.5,2.2c-0.3,0.9-0.8,1.8-1.4,2.5
					c-0.6,0.7-1.2,1.3-2,1.8c-0.8,0.5-1.6,0.9-2.5,1.1c-0.9,0.3-1.9,0.4-2.9,0.4c-1.4,0-2.7-0.2-3.8-0.7c-1.1-0.5-2.1-1.1-3-1.9
					c-0.8-0.8-1.5-1.8-1.9-3c-0.5-1.2-0.7-2.4-0.7-3.9c0-1.4,0.2-2.7,0.7-3.8c0.5-1.2,1.1-2.2,1.9-3c0.8-0.8,1.8-1.5,3-1.9
					c1.2-0.5,2.5-0.7,3.9-0.7c1.9,0,3.5,0.4,4.9,1.2c1.4,0.8,2.5,2.1,3.3,3.7l-4.4,1.8c-0.4-1-0.9-1.7-1.6-2.1
					c-0.7-0.4-1.4-0.6-2.2-0.6c-0.7,0-1.3,0.1-1.9,0.4c-0.6,0.3-1.1,0.6-1.5,1.1c-0.4,0.5-0.7,1.1-0.9,1.7c-0.2,0.7-0.3,1.4-0.3,2.3
					c0,0.8,0.1,1.5,0.3,2.1c0.2,0.6,0.5,1.2,0.9,1.7c0.4,0.5,0.9,0.8,1.5,1.1c0.6,0.3,1.3,0.4,2,0.4c0.5,0,0.9-0.1,1.3-0.2
					c0.4-0.1,0.8-0.3,1.2-0.5c0.3-0.2,0.6-0.5,0.8-0.9c0.2-0.4,0.4-0.8,0.5-1.3h-3.8V76.7z"/>
				<path class="st2" d="M55.9,74.5h4.3v2c0.5-0.7,1-1.3,1.7-1.7c0.7-0.4,1.4-0.6,2.3-0.6c0.1,0,0.2,0,0.4,0c0.1,0,0.3,0,0.5,0v4.1
					c-0.6-0.3-1.2-0.4-1.9-0.4c-1,0-1.7,0.3-2.2,0.9c-0.5,0.6-0.7,1.5-0.7,2.6v5.2h-4.3V74.5z"/>
				<path class="st2" d="M70.3,74.5v6.9c0,1.5,0.7,2.3,2.2,2.3c1.5,0,2.2-0.8,2.2-2.3v-6.9h4.3v7.7c0,1.6-0.5,2.9-1.6,3.7
					c-1.1,0.8-2.7,1.2-4.9,1.2c-2.2,0-3.8-0.4-4.9-1.2c-1.1-0.8-1.6-2.1-1.6-3.7v-7.7H70.3z"/>
				<path class="st2" d="M85.2,92.8h-4.3V74.5h4.3v1.4c0.9-1.2,2.2-1.7,3.7-1.7c0.9,0,1.7,0.2,2.4,0.5c0.8,0.3,1.4,0.8,2,1.4
					c0.6,0.6,1,1.3,1.3,2.1c0.3,0.8,0.5,1.6,0.5,2.5c0,0.9-0.2,1.7-0.5,2.5c-0.3,0.8-0.7,1.5-1.3,2c-0.5,0.6-1.2,1-1.9,1.4
					c-0.7,0.3-1.6,0.5-2.4,0.5c-1.5,0-2.8-0.5-3.8-1.6V92.8z M90.6,80.6c0-0.4-0.1-0.7-0.2-1.1c-0.1-0.3-0.3-0.6-0.6-0.9
					c-0.3-0.3-0.5-0.5-0.9-0.6c-0.3-0.2-0.7-0.2-1.1-0.2c-0.4,0-0.7,0.1-1.1,0.2c-0.3,0.1-0.6,0.3-0.9,0.6c-0.2,0.3-0.4,0.5-0.6,0.9
					c-0.2,0.3-0.2,0.7-0.2,1.1c0,0.4,0.1,0.7,0.2,1.1c0.1,0.3,0.3,0.6,0.6,0.9c0.3,0.2,0.5,0.4,0.9,0.6c0.3,0.2,0.7,0.2,1.1,0.2
					s0.7-0.1,1.1-0.2c0.3-0.1,0.6-0.3,0.9-0.6c0.2-0.3,0.4-0.5,0.6-0.9C90.5,81.3,90.6,81,90.6,80.6z"/>
				<path class="st2" d="M96.1,80.5c0-0.9,0.2-1.7,0.5-2.5c0.4-0.8,0.9-1.5,1.5-2c0.6-0.6,1.4-1,2.3-1.4c0.9-0.3,1.9-0.5,2.9-0.5
					c1,0,2,0.2,2.9,0.5c0.9,0.3,1.7,0.8,2.3,1.4c0.7,0.6,1.2,1.3,1.5,2.1c0.4,0.8,0.5,1.7,0.5,2.6c0,1-0.2,1.8-0.6,2.6
					c-0.4,0.8-0.9,1.5-1.5,2.1c-0.6,0.6-1.4,1-2.3,1.3c-0.9,0.3-1.9,0.5-3,0.5c-1,0-2-0.2-2.9-0.5c-0.9-0.3-1.6-0.8-2.3-1.4
					c-0.6-0.6-1.1-1.3-1.5-2.1C96.3,82.4,96.1,81.5,96.1,80.5z M100.7,80.5c0,0.4,0.1,0.8,0.2,1.1c0.2,0.3,0.3,0.6,0.6,0.9
					c0.2,0.3,0.5,0.5,0.9,0.6c0.3,0.1,0.7,0.2,1.1,0.2c0.4,0,0.7-0.1,1.1-0.2c0.3-0.1,0.6-0.3,0.9-0.6c0.2-0.3,0.4-0.5,0.6-0.9
					c0.1-0.3,0.2-0.7,0.2-1.1c0-0.4-0.1-0.7-0.2-1.1c-0.2-0.3-0.3-0.6-0.6-0.9c-0.2-0.3-0.5-0.5-0.9-0.6c-0.3-0.1-0.7-0.2-1.1-0.2
					c-0.4,0-0.7,0.1-1.1,0.2c-0.3,0.1-0.6,0.3-0.9,0.6c-0.2,0.3-0.4,0.5-0.6,0.9C100.7,79.8,100.7,80.2,100.7,80.5z"/>
			</g>
		</g>
		<g>
			<g>
				<path class="st2" d="M145.5,78.8c-0.2-1.2-1.3-1.9-2.5-1.9c-1.3,0-2.4,0.7-2.6,1.9H145.5z M149.6,81.3h-9.3c0,1.8,1,2.7,2.8,2.7
					c0.9,0,1.6-0.3,2.1-1.1h4.3c-0.7,2.9-3.5,4.2-6.4,4.2c-4.1,0-7.2-2.3-7.2-6.5c0-4.1,2.8-6.5,6.9-6.5c4.3,0,6.8,2.6,6.8,6.8V81.3
					z"/>
			</g>
			<rect x="150.9" y="68.8" class="st2" width="4.4" height="17.8"/>
			<polygon class="st2" points="163.7,80.7 166.7,74.5 171.6,74.5 165.1,86.7 162.3,86.7 155.8,74.5 160.7,74.5 			"/>
			<g>
				<path class="st2" d="M180.2,78.8c-0.2-1.2-1.3-1.9-2.5-1.9c-1.3,0-2.4,0.7-2.6,1.9H180.2z M184.3,81.3H175
					c0,1.8,0.9,2.7,2.8,2.7c0.9,0,1.6-0.3,2.1-1.1h4.3c-0.7,2.9-3.5,4.2-6.4,4.2c-4.1,0-7.2-2.3-7.2-6.5c0-4.1,2.8-6.5,6.9-6.5
					c4.3,0,6.8,2.6,6.8,6.8V81.3z"/>
			</g>
			<polygon class="st2" points="190.8,86.7 186.4,86.7 186.4,78.1 185,78.1 185,74.5 186.4,74.5 186.4,70.9 190.8,70.9 190.8,74.5 
				193.3,74.5 193.3,78.1 190.8,78.1 			"/>
			<g>
				<path class="st2" d="M198.6,86.7h-4.4V74.5h4.4V86.7z M198.9,70.7c0,1.3-1.1,2.4-2.5,2.4c-1.4,0-2.5-1.1-2.5-2.4
					c0-1.3,1.1-2.4,2.5-2.4C197.8,68.2,198.9,69.3,198.9,70.7"/>
				<path class="st2" d="M204.5,80.6c0,1.5,1,2.7,2.8,2.7c1.8,0,2.8-1.2,2.8-2.7c0-1.5-1-2.8-2.8-2.8
					C205.5,77.8,204.5,79.1,204.5,80.6 M214.5,86.7H210v-1.4h0c-0.8,1.2-2.3,1.8-3.8,1.8c-3.7,0-6.3-3-6.3-6.5
					c0-3.5,2.6-6.5,6.3-6.5c1.4,0,2.9,0.5,3.9,1.6v-1.2h4.4V86.7z"/>
			</g>
		</g>
		<g>
			<g>
				<path class="st2" d="M123.8,75.7h6.4v-6.9h4.4v17.9h-4.4v-7.4h-6.4v7.4h-4.4V68.7h4.4V75.7z"/>
			</g>
		</g>
	</g>
</g>
</svg>
