<?xml version="1.0" encoding="utf-8"?>
<!-- Generator: Adobe Illustrator 27.1.0, SVG Export Plug-In . SVG Version: 6.00 Build 0)  -->
<svg version="1.1" id="Capa_1" xmlns="http://www.w3.org/2000/svg" xmlns:xlink="http://www.w3.org/1999/xlink" x="0px" y="0px"
	 viewBox="0 0 275 222.3" style="enable-background:new 0 0 275 222.3;" xml:space="preserve">
<style type="text/css">
	.st0{fill:#EEFAFD;}
	.st1{fill:#033D59;}
	.st2{font-family:'Raleway'; font-weight:bold}
	.st3{font-size:13px;}
	.st4{fill:none;stroke:#033D59;stroke-width:6;stroke-miterlimit:10;}
	.st5{fill:none;stroke:#8BAC0E;stroke-width:6;stroke-miterlimit:10;}
</style>
<circle class="st0" cx="137.5" cy="111.1" r="103.8"/>
<text transform="matrix(1 0 0 1 21.3036 30.0345)" class="st1 st2 st3">PRECIO</text>
<g>
	<text transform="matrix(1 0 0 1 76.0566 78.4873)" class="st1 st2 st3">CUOTA</text>
	<text transform="matrix(1 0 0 1 76.0566 92.8873)" class="st1 st2 st3">MENSUAL</text>
</g>
<g>
	<text transform="matrix(1 0 0 1 206.3687 199.6841)" class="st1 st2 st3">EDAD</text>
</g>
<g>
	<line class="st4" x1="42.5" y1="48.7" x2="42.5" y2="178.3"/>
	<polygon class="st1" points="35.7,54.3 42.5,40 49.3,54.3 	"/>
</g>
<g>
	<line class="st4" x1="230.7" y1="175.5" x2="43" y2="175.5"/>
	<polygon class="st1" points="225,168.7 239.3,175.5 225,182.3 	"/>
</g>
<g>
	<line class="st4" x1="98.7" y1="136" x2="98.7" y2="176"/>
	<line class="st5" x1="135.3" y1="138.4" x2="95.3" y2="138.4"/>
</g>
<g>
	<line class="st4" x1="133.5" y1="101.2" x2="133.5" y2="141.2"/>
	<line class="st5" x1="170.1" y1="103.5" x2="130.1" y2="103.5"/>
</g>
<g>
	<line class="st4" x1="167.2" y1="66.8" x2="167.2" y2="106.8"/>
	<line class="st5" x1="203.8" y1="69.1" x2="163.8" y2="69.1"/>
</g>
</svg>
